<?xml version="1.0" encoding="UTF-8"?>
<svg version="1.1" xmlns="http://www.w3.org/2000/svg" width="512" height="512">
<path d="M0 0 C1.13179688 -0.03351563 2.26359375 -0.06703125 3.4296875 -0.1015625 C12.74906135 1.73078796 19.55356666 9.62035988 26.00341797 16.11523438 C26.95491471 17.06265629 27.90704633 18.00944096 28.85975647 18.9556427 C31.42213097 21.50445169 33.97505886 24.06252372 36.52587271 26.62289619 C39.20651109 29.31118074 41.89451932 31.99208074 44.58132935 34.67419434 C49.08696802 39.17439263 53.58628339 43.68084013 58.08203125 48.19091797 C63.27234453 53.39758422 68.47341671 58.59331529 73.68014991 63.78355742 C78.16316477 68.25294385 82.64028912 72.72816784 87.11257088 77.20829439 C89.77825866 79.87864739 92.44590401 82.54695999 95.11889267 85.21000671 C97.62922069 87.71164653 100.132054 90.22055413 102.62937737 92.73517418 C103.97992559 94.09155615 105.33783349 95.44059773 106.69596863 96.78938293 C111.94514815 102.0935678 116.54987999 106.75011472 116.5625 114.625 C116.39912738 119.35570295 115.36547455 122.04342287 112.125 125.625 C106.125 129.625 106.125 129.625 68.125 129.625 C68.125 180.115 68.125 230.605 68.125 282.625 C69.775 283.285 71.425 283.945 73.125 284.625 C75.26980972 286.24414862 77.29151131 287.86546578 79.3125 289.625 C80.16787354 290.36411621 80.16787354 290.36411621 81.04052734 291.11816406 C100.47433085 308.07718991 113.77631504 327.88811085 121.125 352.625 C121.33672852 353.31416504 121.54845703 354.00333008 121.76660156 354.71337891 C127.99789812 375.82177255 127.5254985 401.63571093 121.125 422.625 C120.92132813 423.33043945 120.71765625 424.03587891 120.5078125 424.76269531 C111.19114598 456.43648598 88.61075802 483.18069414 59.75 498.9375 C51.850917 503.05175633 43.65168681 506.09194361 35.125 508.625 C34.43583496 508.83672852 33.74666992 509.04845703 33.03662109 509.26660156 C11.92822745 515.49789812 -13.88571093 515.0254985 -34.875 508.625 C-35.93315918 508.31949219 -35.93315918 508.31949219 -37.01269531 508.0078125 C-68.69211807 498.68948933 -95.42253962 476.10977119 -111.1875 447.25 C-125.89697166 419.14473277 -130.24654441 383.12887781 -120.875 352.625 C-120.66069336 351.9036084 -120.44638672 351.1822168 -120.22558594 350.43896484 C-114.07993729 330.20841985 -103.35640928 313.99302617 -88.875 298.625 C-88.31425781 298.01140625 -87.75351563 297.3978125 -87.17578125 296.765625 C-82.04574974 291.34990166 -76.06591624 286.76793485 -69.875 282.625 C-69.215 282.625 -68.555 282.625 -67.875 282.625 C-67.88832367 281.7550943 -67.88832367 281.7550943 -67.9019165 280.86761475 C-67.99039029 274.83323012 -68.05073422 268.79902962 -68.09472656 262.76416016 C-68.11484556 260.51180539 -68.14214408 258.25950287 -68.17675781 256.00732422 C-68.22526209 252.77037669 -68.24796605 249.53411953 -68.265625 246.296875 C-68.28627014 245.28945251 -68.30691528 244.28203003 -68.32818604 243.24407959 C-68.33042075 236.2862196 -68.33042075 236.2862196 -66.03808594 232.95800781 C-63.875 231.625 -63.875 231.625 -60.875 231.625 C-60.875 225.025 -60.875 218.425 -60.875 211.625 C-62.525 211.295 -64.175 210.965 -65.875 210.625 C-68.30169283 206.98496076 -68.14411387 204.3277485 -68.10205078 200.12426758 C-68.10234283 199.36305099 -68.10263489 198.60183441 -68.10293579 197.81755066 C-68.10154243 195.30142824 -68.08598107 192.78560194 -68.0703125 190.26953125 C-68.06658239 188.52504132 -68.06373541 186.78054929 -68.06173706 185.03605652 C-68.05410045 180.44436866 -68.03445171 175.85280731 -68.0123291 171.26116943 C-67.99187129 166.57582307 -67.98273548 161.89045627 -67.97265625 157.20507812 C-67.95120585 148.01166317 -67.91706955 138.8183421 -67.875 129.625 C-68.99471191 129.64594727 -70.11442383 129.66689453 -71.26806641 129.68847656 C-75.43883377 129.76110426 -79.60954568 129.80688211 -83.78076172 129.84472656 C-85.58294081 129.86479033 -87.38505521 129.89204813 -89.18701172 129.92675781 C-91.78369136 129.97550829 -94.37950729 129.99802082 -96.9765625 130.015625 C-98.17691635 130.04659271 -98.17691635 130.04659271 -99.40151978 130.07818604 C-104.71182861 130.08029612 -107.64619629 129.11541587 -111.875 125.625 C-115.77880487 121.3102683 -116.33350981 117.87705869 -116.40625 112.28515625 C-114.76165716 104.05009946 -108.24572838 98.56862858 -102.53588867 92.89770508 C-101.58053033 91.93827564 -100.62581006 90.97821047 -99.67167664 90.01756287 C-97.09171674 87.42398766 -94.50243126 84.83991858 -91.91089416 82.25791764 C-89.19237903 79.54702918 -86.48122666 76.82879281 -83.76887512 74.11174011 C-79.21384624 69.55126242 -74.65254953 64.99712562 -70.08764648 60.4465332 C-64.81970823 55.19491974 -59.56266417 49.93258656 -54.31114787 44.66455537 C-49.79168616 40.13145386 -45.26637199 35.60425715 -40.73616773 31.08189124 C-38.03501423 28.38540055 -35.33589458 25.68695787 -32.64204979 22.98316383 C-30.10843147 20.44084179 -27.56751414 17.90604243 -25.02092171 15.37671852 C-23.64921378 14.0108311 -22.28482755 12.63760295 -20.92071533 11.26412964 C-14.57563275 4.98383963 -9.37127139 0.06375015 0 0 Z " fill="#5FB6FE" transform="translate(124.875,-0.625)"/>
<path d="M0 0 C0.7213916 0.21430664 1.4427832 0.42861328 2.18603516 0.64941406 C22.28876968 6.75623636 38.88002833 17.40050928 54 32 C54.71800781 32.69222656 55.43601562 33.38445313 56.17578125 34.09765625 C59.39112245 37.44186884 60.88320308 39.10942349 61.5 43.8125 C61 47 61 47 60 50 C61.2353325 52.52411689 62.50011442 54.76803695 64 57.125 C64.56267578 58.09373047 64.56267578 58.09373047 65.13671875 59.08203125 C66.31271381 60.94565132 67.38979416 62.49264385 69 64 C72.52585104 64.73144068 72.52585104 64.73144068 76 65 C80.28910904 67.98372803 81.49041388 72.2305844 83.0625 77 C83.31926514 77.75458496 83.57603027 78.50916992 83.84057617 79.28662109 C91.86908824 103.29822053 93.50489414 131.57196937 86 156 C85.78569336 156.7213916 85.57138672 157.4427832 85.35058594 158.18603516 C79.20493729 178.41658015 68.48140928 194.63197383 54 210 C53.43925781 210.61359375 52.87851562 211.2271875 52.30078125 211.859375 C47.17074974 217.27509834 41.19091624 221.85706515 35 226 C34.34 226 33.68 226 33 226 C33 276.49 33 326.98 33 379 C45.54 379 58.08 379 71 379 C78.63636364 384.09090909 78.63636364 384.09090909 81 389 C82.09424678 395.75529901 80.92222399 400.39715808 77 406 C74.03624485 409.3929643 70.8564183 412.55354487 67.66088867 415.72729492 C66.70553033 416.68672436 65.75081006 417.64678953 64.79667664 418.60743713 C62.21671674 421.20101234 59.62743126 423.78508142 57.03589416 426.36708236 C54.31737903 429.07797082 51.60622666 431.79620719 48.89387512 434.51325989 C44.33884624 439.07373758 39.77754953 443.62787438 35.21264648 448.1784668 C29.94470823 453.43008026 24.68766417 458.69241344 19.43614787 463.96044463 C14.91668616 468.49354614 10.39137199 473.02074285 5.86116773 477.54310876 C3.16001423 480.23959945 0.46089458 482.93804213 -2.23295021 485.64183617 C-4.76656853 488.18415821 -7.30748586 490.71895757 -9.85407829 493.24828148 C-11.22578622 494.6141689 -12.59017245 495.98739705 -13.95428467 497.36087036 C-20.29936725 503.64116037 -25.50372861 508.56124985 -34.875 508.625 C-36.00679688 508.65851562 -37.13859375 508.69203125 -38.3046875 508.7265625 C-47.62406135 506.89421204 -54.42856666 499.00464012 -60.87841797 492.50976562 C-61.82991471 491.56234371 -62.78204633 490.61555904 -63.73475647 489.6693573 C-66.29713097 487.12054831 -68.85005886 484.56247628 -71.40087271 482.00210381 C-74.08151109 479.31381926 -76.76951932 476.63291926 -79.45632935 473.95080566 C-83.96196802 469.45060737 -88.46128339 464.94415987 -92.95703125 460.43408203 C-98.14734453 455.22741578 -103.34841671 450.03168471 -108.55514991 444.84144258 C-113.03816477 440.37205615 -117.51528912 435.89683216 -121.98757088 431.41670561 C-124.65325866 428.74635261 -127.32090401 426.07804001 -129.99389267 423.41499329 C-132.50422069 420.91335347 -135.007054 418.40444587 -137.50437737 415.88982582 C-138.85492559 414.53344385 -140.21283349 413.18440227 -141.57096863 411.83561707 C-146.82014815 406.5314322 -151.42487999 401.87488528 -151.4375 394 C-151.27412738 389.26929705 -150.24047455 386.58157713 -147 383 C-141 379 -141 379 -103 379 C-103 328.51 -103 278.02 -103 226 C-104.32 225.34 -105.64 224.68 -107 224 C-126.74076599 211.4436864 -140.44306705 193.05458901 -150 172 C-150.72316406 170.47632813 -150.72316406 170.47632813 -151.4609375 168.921875 C-158.21574922 153.93847446 -160.23643071 137.90240256 -160.25 121.625 C-160.25067474 120.90313507 -160.25134949 120.18127014 -160.25204468 119.43753052 C-160.2365059 109.00113538 -159.90694035 99.11568355 -157 89 C-156.6596875 87.77410156 -156.319375 86.54820313 -155.96875 85.28515625 C-146.18657625 53.26175637 -124.03438156 25.72791878 -94.625 9.6875 C-86.72563957 5.57359407 -78.52680544 2.53309163 -70 0 C-68.96625244 -0.31759277 -68.96625244 -0.31759277 -67.91162109 -0.64160156 C-46.83562026 -6.86333561 -20.95377508 -6.43751706 0 0 Z " fill="#C7F4AE" transform="translate(422,4)"/>
<path d="M0 0 C5.75259204 4.56516718 10.82498192 9.50909486 15.7265625 14.9765625 C18.74898478 17.34602284 20.35817964 17.28853863 24.11328125 16.84765625 C25.10328125 16.51765625 26.09328125 16.18765625 27.11328125 15.84765625 C28.21960315 17.40863099 29.3232391 18.97150952 30.42578125 20.53515625 C31.04066406 21.40527344 31.65554688 22.27539062 32.2890625 23.171875 C35.69036918 28.16094369 35.69036918 28.16094369 37.11328125 30.84765625 C36.39869234 32.99142299 35.70103708 34.25990042 34.11328125 35.84765625 C33.44400678 40.755669 34.45459764 43.98593182 36.36328125 48.53515625 C46.87663782 74.83352396 45.85522109 104.69608263 34.98828125 130.66015625 C22.57352581 158.71277804 0.28000874 180.06251403 -28.21313477 191.52026367 C-54.54012691 201.41166968 -84.54602346 200.68421172 -110.35546875 189.546875 C-119.89986278 184.95416327 -128.80932242 179.75848163 -136.88671875 172.84765625 C-137.68464844 172.1825 -138.48257813 171.51734375 -139.3046875 170.83203125 C-160.97240107 152.15412622 -174.91416116 125.53406806 -177.10986328 96.94189453 C-178.74945662 65.39899706 -169.4275105 37.58952973 -148.51171875 13.72265625 C-146.98566378 12.08298636 -145.4441194 10.45758306 -143.88671875 8.84765625 C-143.17386719 8.10902344 -142.46101563 7.37039062 -141.7265625 6.609375 C-126.08406382 -8.49650279 -105.90631949 -16.9527309 -84.88671875 -21.15234375 C-83.97277344 -21.34570312 -83.05882812 -21.5390625 -82.1171875 -21.73828125 C-52.39257146 -25.54820785 -23.94651703 -17.85457495 0 0 Z " fill="#E8F4FD" transform="translate(453.88671875,37.15234375)"/>
<path d="M0 0 C1.22203125 0.31839844 2.4440625 0.63679688 3.703125 0.96484375 C32.58648517 9.01465175 56.88952875 27.68374575 72.12109375 53.53125 C78.4819101 65.27429556 82.45656775 76.89995647 85 90 C85.28810547 91.38445312 85.28810547 91.38445312 85.58203125 92.796875 C89.3571896 121.72799504 82.05291372 151.01634163 64.35644531 174.29003906 C45.93577059 197.51149438 20.31232266 213.62811872 -9.26220703 217.70263672 C-38.16426264 220.8418113 -66.42922197 214.23719493 -89.75 196.5625 C-91.17892432 195.38977838 -92.59539671 194.20174468 -94 193 C-94.79792969 192.33484375 -95.59585938 191.6696875 -96.41796875 190.984375 C-118.08568232 172.30646997 -132.02744241 145.68641181 -134.22314453 117.09423828 C-135.86273787 85.55134081 -126.54079175 57.74187348 -105.625 33.875 C-104.09894503 32.23533011 -102.55740065 30.60992681 -101 29 C-100.28714844 28.26136719 -99.57429688 27.52273438 -98.83984375 26.76171875 C-83.19734507 11.65584096 -63.01960074 3.19961285 -42 -1 C-41.08476563 -1.1959375 -40.16953125 -1.391875 -39.2265625 -1.59375 C-26.68182089 -3.17323321 -12.25175519 -3.23216194 0 0 Z " fill="#E8F4FD" transform="translate(149,279)"/>
<path d="M0 0 C1.13179688 -0.03351563 2.26359375 -0.06703125 3.4296875 -0.1015625 C12.74906135 1.73078796 19.55356666 9.62035988 26.00341797 16.11523438 C26.95491471 17.06265629 27.90704633 18.00944096 28.85975647 18.9556427 C31.42213097 21.50445169 33.97505886 24.06252372 36.52587271 26.62289619 C39.20651109 29.31118074 41.89451932 31.99208074 44.58132935 34.67419434 C49.08696802 39.17439263 53.58628339 43.68084013 58.08203125 48.19091797 C63.27234453 53.39758422 68.47341671 58.59331529 73.68014991 63.78355742 C78.16316477 68.25294385 82.64028912 72.72816784 87.11257088 77.20829439 C89.77825866 79.87864739 92.44590401 82.54695999 95.11889267 85.21000671 C97.62922069 87.71164653 100.132054 90.22055413 102.62937737 92.73517418 C103.97992559 94.09155615 105.33783349 95.44059773 106.69596863 96.78938293 C111.94514815 102.0935678 116.54987999 106.75011472 116.5625 114.625 C116.39912738 119.35570295 115.36547455 122.04342287 112.125 125.625 C106.125 129.625 106.125 129.625 68.125 129.625 C68.125 180.115 68.125 230.605 68.125 282.625 C69.775 283.285 71.425 283.945 73.125 284.625 C75.26980972 286.24414862 77.29151131 287.86546578 79.3125 289.625 C80.16787354 290.36411621 80.16787354 290.36411621 81.04052734 291.11816406 C100.47433085 308.07718991 113.77631504 327.88811085 121.125 352.625 C121.33672852 353.31416504 121.54845703 354.00333008 121.76660156 354.71337891 C127.99789812 375.82177255 127.5254985 401.63571093 121.125 422.625 C120.92132813 423.33043945 120.71765625 424.03587891 120.5078125 424.76269531 C111.19114598 456.43648598 88.61075802 483.18069414 59.75 498.9375 C51.850917 503.05175633 43.65168681 506.09194361 35.125 508.625 C34.43583496 508.83672852 33.74666992 509.04845703 33.03662109 509.26660156 C11.92822745 515.49789812 -13.88571093 515.0254985 -34.875 508.625 C-35.93315918 508.31949219 -35.93315918 508.31949219 -37.01269531 508.0078125 C-68.69211807 498.68948933 -95.42253962 476.10977119 -111.1875 447.25 C-125.89697166 419.14473277 -130.24654441 383.12887781 -120.875 352.625 C-120.66069336 351.9036084 -120.44638672 351.1822168 -120.22558594 350.43896484 C-114.07993729 330.20841985 -103.35640928 313.99302617 -88.875 298.625 C-88.31425781 298.01140625 -87.75351563 297.3978125 -87.17578125 296.765625 C-82.04574974 291.34990166 -76.06591624 286.76793485 -69.875 282.625 C-69.215 282.625 -68.555 282.625 -67.875 282.625 C-67.88832367 281.7550943 -67.88832367 281.7550943 -67.9019165 280.86761475 C-67.99039029 274.83323012 -68.05073422 268.79902962 -68.09472656 262.76416016 C-68.11484556 260.51180539 -68.14214408 258.25950287 -68.17675781 256.00732422 C-68.22526209 252.77037669 -68.24796605 249.53411953 -68.265625 246.296875 C-68.28627014 245.28945251 -68.30691528 244.28203003 -68.32818604 243.24407959 C-68.33042262 236.28041149 -68.33042262 236.28041149 -66.03808594 232.98144531 C-63.11330197 231.14734828 -61.27095554 231.20050556 -57.875 231.625 C-54.175 233.025 -54.175 233.025 -52.875 235.625 C-52.78808999 238.46929357 -52.75946198 241.28879176 -52.77734375 244.1328125 C-52.7787587 244.97343231 -52.78017365 245.81405212 -52.78163147 246.68014526 C-52.78723763 249.37013275 -52.79979114 252.06003759 -52.8125 254.75 C-52.81751421 256.57161338 -52.82207725 258.39322807 -52.82617188 260.21484375 C-52.83720906 264.68492777 -52.8544778 269.15494986 -52.875 273.625 C-52.0258049 273.29996742 -52.0258049 273.29996742 -51.15945435 272.96836853 C-19.69812046 260.94569074 12.25615387 258.13907159 44.2265625 270.27734375 C45.08934814 270.60021362 45.95213379 270.9230835 46.84106445 271.2557373 C48.93745634 272.04097626 51.03200545 272.8307602 53.125 273.625 C53.11854745 272.8593145 53.1120949 272.093629 53.10544682 271.30474091 C52.9507387 252.65888061 52.83496321 234.01314871 52.7623148 215.36678314 C52.72624701 206.34943059 52.6770894 197.33250692 52.59692383 188.31542969 C52.52707031 180.45450057 52.48197285 172.5938821 52.46638054 164.73265123 C52.4572683 160.57145249 52.43591218 156.41114232 52.3848896 152.25022888 C52.33720815 148.32984925 52.32275203 144.41072004 52.33324623 140.49007797 C52.33132783 139.05496793 52.31750066 137.61981406 52.29056168 136.1849556 C52.07343285 124.01836674 52.07343285 124.01836674 56.54966736 118.7701416 C61.06505984 114.40683007 64.53290972 114.48899064 70.6328125 114.52734375 C71.47343231 114.5287587 72.31405212 114.53017365 73.18014526 114.53163147 C75.87013275 114.53723763 78.56003759 114.54979114 81.25 114.5625 C83.07161338 114.56751421 84.89322807 114.57207725 86.71484375 114.57617188 C91.18492777 114.58720906 95.65494986 114.6044778 100.125 114.625 C95.07015891 108.69149715 89.75131593 103.08779632 84.25561523 97.56274414 C83.39616302 96.69511444 82.53671082 95.82748474 81.6512146 94.93356323 C78.83169528 92.08940884 76.00829032 89.2491662 73.18359375 86.41015625 C72.20582212 85.42701579 71.22805484 84.443871 70.25029182 83.46072197 C66.18520025 79.37406881 62.1186989 75.28882718 58.04847622 71.20728397 C52.23592333 65.37844753 46.43207472 59.54123784 40.63982052 53.69222742 C36.55155847 49.56528362 32.45377326 45.44795172 28.34877163 41.33765882 C25.90219973 38.88743751 23.45997231 36.43322752 21.02786064 33.9686451 C18.32062601 31.22577265 15.59382048 28.50289089 12.86499023 25.78149414 C12.06534348 24.96544205 11.26569672 24.14938995 10.44181824 23.30860901 C7.44637269 20.34652068 4.89834643 17.99241887 1.07875061 16.17771912 C-3.81759885 16.91916408 -6.47695492 20.20323489 -9.875 23.625 C-10.57905409 24.30669565 -11.28310818 24.9883913 -12.00849724 25.6907444 C-14.33953277 27.95903818 -16.64028512 30.25509223 -18.93725586 32.55786133 C-19.80488556 33.42373871 -20.67251526 34.28961609 -21.56643677 35.18173218 C-23.92114228 37.53281701 -26.27360998 39.88609509 -28.62490916 42.24058366 C-31.09328773 44.7115116 -33.56412509 47.17997896 -36.03456116 49.64884949 C-40.17433411 53.78681028 -44.3120096 57.92685958 -48.44848633 62.06811523 C-53.2318831 66.85697441 -58.01890073 71.64219148 -62.80777258 76.42557508 C-66.92780246 80.54107233 -71.04588731 84.65850822 -75.16234118 88.77758235 C-77.61764519 91.23444553 -80.07362042 93.69062751 -82.5313549 96.14505959 C-85.26326751 98.87355636 -87.9910956 101.60611363 -90.71850586 104.33911133 C-91.942584 105.56015312 -91.942584 105.56015312 -93.19139099 106.80586243 C-93.93006409 107.54735535 -94.66873718 108.28884827 -95.42979431 109.05281067 C-96.07479857 109.69819196 -96.71980284 110.34357325 -97.38435268 111.00851154 C-98.96374846 112.57118203 -98.96374846 112.57118203 -99.875 114.625 C-98.76576172 114.58834229 -97.65652344 114.55168457 -96.51367188 114.51391602 C-92.36922271 114.38651026 -88.22494372 114.30660341 -84.07910156 114.24047852 C-82.29039331 114.2054343 -80.50188329 114.15778199 -78.71386719 114.09692383 C-61.93057594 113.54028736 -61.93057594 113.54028736 -56.71875 118.02734375 C-52.83169987 122.38786007 -52.7134967 125.81504468 -52.68212891 131.49951172 C-52.66986267 132.71926193 -52.66986267 132.71926193 -52.65734863 133.96365356 C-52.63248985 136.66065733 -52.61597886 139.35760852 -52.6015625 142.0546875 C-52.59623882 142.97459599 -52.59091515 143.89450447 -52.58543015 144.84228897 C-52.55869851 149.70979225 -52.53932226 154.57726986 -52.52490234 159.44482422 C-52.50823964 164.47797579 -52.46344857 169.51047445 -52.4125309 174.54337883 C-52.37891656 178.40895359 -52.36733142 182.27437213 -52.36167526 186.1400795 C-52.35494839 187.99568812 -52.33968918 189.85128595 -52.31578445 191.70675278 C-52.28424893 194.30228074 -52.28407793 196.89603087 -52.29150391 199.49169922 C-52.27509857 200.25963806 -52.25869324 201.0275769 -52.24179077 201.81878662 C-52.2866425 205.6437272 -52.54802704 207.27961958 -55.22006226 210.1020813 C-58.46540523 211.96366676 -60.19140307 212.25199522 -63.875 211.625 C-66.0302124 210.06964111 -66.0302124 210.06964111 -67.875 207.625 C-68.2493979 204.9457818 -68.38287519 202.68417266 -68.32910156 200.01074219 C-68.32968567 199.24937958 -68.33026978 198.48801697 -68.33087158 197.70358276 C-68.32808973 195.19254614 -68.29699452 192.68270366 -68.265625 190.171875 C-68.25816293 188.42881926 -68.25246984 186.68575512 -68.24847412 184.94268799 C-68.23321501 180.35905724 -68.19393099 175.77593498 -68.1496582 171.19250488 C-68.10871138 166.51382323 -68.09046437 161.83505926 -68.0703125 157.15625 C-68.02743686 147.97894348 -67.95918228 138.80201406 -67.875 129.625 C-68.99471191 129.64594727 -70.11442383 129.66689453 -71.26806641 129.68847656 C-75.43883377 129.76110426 -79.60954568 129.80688211 -83.78076172 129.84472656 C-85.58294081 129.86479033 -87.38505521 129.89204813 -89.18701172 129.92675781 C-91.78369136 129.97550829 -94.37950729 129.99802082 -96.9765625 130.015625 C-98.17691635 130.04659271 -98.17691635 130.04659271 -99.40151978 130.07818604 C-104.71182861 130.08029612 -107.64619629 129.11541587 -111.875 125.625 C-115.77880487 121.3102683 -116.33350981 117.87705869 -116.40625 112.28515625 C-114.76165716 104.05009946 -108.24572838 98.56862858 -102.53588867 92.89770508 C-101.58053033 91.93827564 -100.62581006 90.97821047 -99.67167664 90.01756287 C-97.09171674 87.42398766 -94.50243126 84.83991858 -91.91089416 82.25791764 C-89.19237903 79.54702918 -86.48122666 76.82879281 -83.76887512 74.11174011 C-79.21384624 69.55126242 -74.65254953 64.99712562 -70.08764648 60.4465332 C-64.81970823 55.19491974 -59.56266417 49.93258656 -54.31114787 44.66455537 C-49.79168616 40.13145386 -45.26637199 35.60425715 -40.73616773 31.08189124 C-38.03501423 28.38540055 -35.33589458 25.68695787 -32.64204979 22.98316383 C-30.10843147 20.44084179 -27.56751414 17.90604243 -25.02092171 15.37671852 C-23.64921378 14.0108311 -22.28482755 12.63760295 -20.92071533 11.26412964 C-14.57563275 4.98383963 -9.37127139 0.06375015 0 0 Z M-81.47265625 312.87890625 C-102.2742791 336.65702147 -111.48195428 365.20386236 -110.07763672 396.66357422 C-108.03179407 426.56245538 -92.88981999 452.01549853 -71.28515625 472.0234375 C-55.806174 485.05565883 -37.5554956 492.69293377 -17.875 496.625 C-16.94945313 496.81835938 -16.02390625 497.01171875 -15.0703125 497.2109375 C13.95410154 500.97204739 43.10701511 493.63055543 66.46679688 475.9296875 C89.71498927 457.63782352 105.76956939 431.81791696 109.82763672 402.36279297 C113.15422635 371.73522634 105.44041971 342.78598348 86.125 318.625 C67.41507093 296.47449127 41.46963337 280.27905281 12.125 277.625 C-23.93102173 275.61903017 -56.18119767 286.60366322 -81.47265625 312.87890625 Z " fill="#000001" transform="translate(124.875,-0.625)"/>
<path d="M0 0 C0.7213916 0.21430664 1.4427832 0.42861328 2.18603516 0.64941406 C22.28876968 6.75623636 38.88002833 17.40050928 54 32 C54.71800781 32.69222656 55.43601562 33.38445313 56.17578125 34.09765625 C59.36678821 37.41655928 60.86499882 39.17649278 61.625 43.8125 C60.98859069 47.0581875 60.67021092 48.15139244 58 50 C55.05528604 51.47235698 53.27511923 51.43929743 50 51 C47.68667252 49.05193475 45.80953179 47.22953572 43.8125 45 C24.31458212 24.45174537 -2.9400775 12.33043102 -31.23144531 11.52734375 C-62.91840512 11.25709249 -90.69118941 22.50436595 -113.6875 44.25 C-134.40055432 65.87351824 -144.6107813 94.13983814 -144.41723633 123.86181641 C-143.6727656 153.7111 -131.02881852 180.68031925 -109.7109375 201.39892578 C-87.68518325 222.01035506 -58.66714378 231.297702 -28.88671875 230.37109375 C1.39272835 228.78833809 27.90636918 214.58845746 48.26953125 192.54296875 C68.15444604 168.89286299 76.42669372 139.58655848 74 109 C72.74587019 98.33710964 70.08745498 88.53955846 65.98828125 78.640625 C64.63920568 75.03598039 64.27569412 72.78248628 65 69 C66.5625 66.5625 66.5625 66.5625 69 65 C72.5 64.5 72.5 64.5 76 65 C80.22307083 68.1896797 81.46657371 72.15825778 83.0625 77 C83.31926514 77.75458496 83.57603027 78.50916992 83.84057617 79.28662109 C91.86908824 103.29822053 93.50489414 131.57196937 86 156 C85.78569336 156.7213916 85.57138672 157.4427832 85.35058594 158.18603516 C79.20493729 178.41658015 68.48140928 194.63197383 54 210 C53.43925781 210.61359375 52.87851562 211.2271875 52.30078125 211.859375 C47.17074974 217.27509834 41.19091624 221.85706515 35 226 C34.34 226 33.68 226 33 226 C33 276.49 33 326.98 33 379 C45.54 379 58.08 379 71 379 C78.63636364 384.09090909 78.63636364 384.09090909 81 389 C82.09424678 395.75529901 80.92222399 400.39715808 77 406 C74.03624485 409.3929643 70.8564183 412.55354487 67.66088867 415.72729492 C66.70553033 416.68672436 65.75081006 417.64678953 64.79667664 418.60743713 C62.21671674 421.20101234 59.62743126 423.78508142 57.03589416 426.36708236 C54.31737903 429.07797082 51.60622666 431.79620719 48.89387512 434.51325989 C44.33884624 439.07373758 39.77754953 443.62787438 35.21264648 448.1784668 C29.94470823 453.43008026 24.68766417 458.69241344 19.43614787 463.96044463 C14.91668616 468.49354614 10.39137199 473.02074285 5.86116773 477.54310876 C3.16001423 480.23959945 0.46089458 482.93804213 -2.23295021 485.64183617 C-4.76656853 488.18415821 -7.30748586 490.71895757 -9.85407829 493.24828148 C-11.22578622 494.6141689 -12.59017245 495.98739705 -13.95428467 497.36087036 C-20.29936725 503.64116037 -25.50372861 508.56124985 -34.875 508.625 C-36.00679688 508.65851562 -37.13859375 508.69203125 -38.3046875 508.7265625 C-47.62406135 506.89421204 -54.42856666 499.00464012 -60.87841797 492.50976562 C-61.82991471 491.56234371 -62.78204633 490.61555904 -63.73475647 489.6693573 C-66.29713097 487.12054831 -68.85005886 484.56247628 -71.40087271 482.00210381 C-74.08151109 479.31381926 -76.76951932 476.63291926 -79.45632935 473.95080566 C-83.96196802 469.45060737 -88.46128339 464.94415987 -92.95703125 460.43408203 C-98.14734453 455.22741578 -103.34841671 450.03168471 -108.55514991 444.84144258 C-113.03816477 440.37205615 -117.51528912 435.89683216 -121.98757088 431.41670561 C-124.65325866 428.74635261 -127.32090401 426.07804001 -129.99389267 423.41499329 C-132.50422069 420.91335347 -135.007054 418.40444587 -137.50437737 415.88982582 C-138.85492559 414.53344385 -140.21283349 413.18440227 -141.57096863 411.83561707 C-146.82014815 406.5314322 -151.42487999 401.87488528 -151.4375 394 C-151.27412738 389.26929705 -150.24047455 386.58157713 -147 383 C-141 379 -141 379 -103 379 C-103 328.51 -103 278.02 -103 226 C-104.32 225.34 -105.64 224.68 -107 224 C-126.74076599 211.4436864 -140.44306705 193.05458901 -150 172 C-150.72316406 170.47632813 -150.72316406 170.47632813 -151.4609375 168.921875 C-158.21574922 153.93847446 -160.23643071 137.90240256 -160.25 121.625 C-160.25067474 120.90313507 -160.25134949 120.18127014 -160.25204468 119.43753052 C-160.2365059 109.00113538 -159.90694035 99.11568355 -157 89 C-156.6596875 87.77410156 -156.319375 86.54820313 -155.96875 85.28515625 C-146.18657625 53.26175637 -124.03438156 25.72791878 -94.625 9.6875 C-86.72563957 5.57359407 -78.52680544 2.53309163 -70 0 C-68.96625244 -0.31759277 -68.96625244 -0.31759277 -67.91162109 -0.64160156 C-46.83562026 -6.86333561 -20.95377508 -6.43751706 0 0 Z M-88 235 C-88.00238835 235.76329715 -88.00477671 236.5265943 -88.00723743 237.31302166 C-88.06636505 255.88294012 -88.14190075 274.45272542 -88.23571491 293.02250195 C-88.28068673 302.00270095 -88.32009819 310.98286018 -88.34643555 319.96313477 C-88.36940441 327.7900474 -88.40278995 335.61683428 -88.44870156 343.44364721 C-88.47264884 347.58816955 -88.49136772 351.73256725 -88.49761391 355.87715721 C-88.503658 359.778466 -88.52363312 363.67945578 -88.55427551 367.58064651 C-88.56306662 369.01208723 -88.56677609 370.44356962 -88.56500816 371.87503624 C-88.56335544 373.83076455 -88.58182125 375.78647892 -88.60127258 377.74211121 C-88.60818603 379.38336361 -88.60818603 379.38336361 -88.61523914 381.05777264 C-89.19373703 385.48148745 -91.13232802 388.07672962 -94.13745117 391.27441406 C-98.07416213 393.64752051 -101.28282965 393.60248284 -105.80078125 393.609375 C-106.63715622 393.62591125 -107.47353119 393.64244751 -108.33525085 393.65948486 C-110.99440916 393.7078894 -113.65299592 393.72931844 -116.3125 393.75 C-118.12047135 393.77816609 -119.92841615 393.80809441 -121.73632812 393.83984375 C-126.15750501 393.91364605 -130.57836603 393.96326652 -135 394 C-133.55614126 397.30024109 -131.76284925 399.49408191 -129.23126221 402.04289246 C-128.05374893 403.23536842 -128.05374893 403.23536842 -126.85244751 404.45193481 C-125.99009491 405.31495209 -125.12774231 406.17796936 -124.23925781 407.06713867 C-122.87802292 408.44085884 -122.87802292 408.44085884 -121.48928833 409.84233093 C-119.00233427 412.3512062 -116.50885979 414.85349984 -114.01346684 417.35397887 C-112.45421939 418.9168718 -110.89627768 420.48105449 -109.33876801 422.04567909 C-103.90376115 427.50516932 -98.46306701 432.95892469 -93.01757812 438.40795898 C-87.94335748 443.48581707 -82.88242567 448.57666207 -77.82735944 453.67358226 C-73.48453529 458.0510967 -69.13214273 462.41894257 -64.77228808 466.77949506 C-62.16941462 469.38316157 -59.57067465 471.99065371 -56.98166656 474.60811424 C-54.09435466 477.52644509 -51.18744744 480.42446003 -48.27832031 483.32104492 C-47.42406464 484.19013489 -46.56980896 485.05922485 -45.68966675 485.95465088 C-44.8933786 486.74117538 -44.09709045 487.52769989 -43.27667236 488.33805847 C-42.24908247 489.36866536 -42.24908247 489.36866536 -41.20073318 490.42009258 C-38.40012576 492.43065001 -36.43554602 492.89412567 -33 493 C-30.89469933 491.95000612 -30.89469933 491.95000612 -29.19812012 490.12654114 C-28.51732895 489.47395136 -27.83653778 488.82136158 -27.13511658 488.14899635 C-26.07823387 487.08524316 -26.07823387 487.08524316 -25 486 C-24.2897316 485.31303228 -23.5794632 484.62606457 -22.84767151 483.91827965 C-20.48714039 481.62465327 -18.15674197 479.30330289 -15.83007812 476.9753418 C-14.51159378 475.66189537 -14.51159378 475.66189537 -13.16647339 474.32191467 C-10.78078064 471.94403712 -8.39733797 469.5639531 -6.01523018 467.18248725 C-4.52557867 465.69355014 -3.03521591 464.20532876 -1.54460144 462.71735573 C3.65800434 457.52396439 8.85805868 452.32803436 14.05566406 447.12963867 C18.90001592 442.28468321 23.74995044 437.44536558 28.60246229 432.60858411 C32.77599905 428.44809556 36.94569931 424.28378865 41.11239672 420.11645061 C43.59824678 417.63034528 46.08563429 415.14582679 48.57688904 412.66513634 C51.34524507 409.90820458 54.10561378 407.14336266 56.86523438 404.37768555 C57.69423248 403.55430695 58.52323059 402.73092834 59.37734985 401.88259888 C60.12306244 401.1326918 60.86877502 400.38278473 61.63708496 399.6101532 C62.29038536 398.95739757 62.94368576 398.30464193 63.61678314 397.63210583 C65.21551415 396.10227501 65.21551415 396.10227501 65 394 C63.8855249 394.00112793 62.7710498 394.00225586 61.62280273 394.00341797 C57.4644149 393.99973047 53.30717732 393.9567907 49.14916992 393.90234375 C47.35399818 393.88424172 45.55868775 393.8766047 43.76342773 393.87988281 C41.1732373 393.88275681 38.58588862 393.84727267 35.99609375 393.8046875 C35.20101913 393.81378143 34.40594452 393.82287537 33.58677673 393.83224487 C28.14507425 393.69218635 25.30330212 392.26615975 21.31263733 388.57717896 C18.6195192 385.34130477 18.8654413 382.00138639 18.84178162 377.98262024 C18.82709839 376.09587082 18.82709839 376.09587082 18.81211853 374.17100525 C18.80621435 372.77456703 18.8004039 371.37812841 18.79467773 369.98168945 C18.78509901 368.51328251 18.77508893 367.04487833 18.76467896 365.57647705 C18.73762324 361.58713014 18.71661728 357.59777139 18.69667697 353.60838342 C18.67482154 349.44033156 18.64743068 345.27231622 18.62062073 341.10429382 C18.57068786 333.21019459 18.52575123 325.3160751 18.48259836 317.42193621 C18.43323107 308.43531463 18.37831106 299.44872969 18.32291877 290.46214354 C18.2090896 271.97479637 18.10225258 253.48741464 18 235 C14.94491666 235.59306509 12.06325655 236.24343624 9.13671875 237.3046875 C-12.82305088 245.08205421 -35.94331315 248.27518028 -59 243 C-59.63196289 242.86045898 -60.26392578 242.72091797 -60.91503906 242.57714844 C-68.54075717 240.87572104 -75.92407797 238.93758989 -83.08203125 235.734375 C-85.12464934 234.82121166 -85.12464934 234.82121166 -88 235 Z " fill="#000000" transform="translate(422,4)"/>
<path d="M0 0 C27.15927841 2.85412771 51.67911542 18.50996863 69.25 38.875 C81.83931281 54.54617659 89.19977445 71.42679531 93 91 C93.19207031 91.92296875 93.38414062 92.8459375 93.58203125 93.796875 C97.3571896 122.72799504 90.05291372 152.01634163 72.35644531 175.29003906 C56.05746295 195.83684837 33.83652531 211.32194134 8 217 C4.5 217.125 4.5 217.125 2 217 C4.78487219 214.77073039 7.69283389 213.00755148 10.82104492 211.29931641 C17.80480431 207.47899492 23.98168656 203.24300736 30 198 C30.89332031 197.25105469 31.78664062 196.50210938 32.70703125 195.73046875 C55.08394372 176.35800886 68.43674125 147.50541316 70.60424805 118.15161133 C71.23708779 107.724066 70.75759752 97.40822443 70 87 C64.2012808 89.46982484 61.85282311 94.45362816 58.75 99.625 C57.68306469 101.36766101 56.61539598 103.1098733 55.546875 104.8515625 C55.08120117 105.62322754 54.61552734 106.39489258 54.13574219 107.18994141 C53 109 53 109 52 110 C51.87800532 112.09789298 51.82022536 114.19957528 51.7890625 116.30078125 C51.74652344 118.23147461 51.74652344 118.23147461 51.703125 120.20117188 C51.66192337 122.25512201 51.62504705 124.30884064 51.59863281 126.36303711 C51.57095789 128.34250992 51.52398971 130.32168318 51.4765625 132.30078125 C51.45674316 133.48841064 51.43692383 134.67604004 51.41650391 135.8996582 C50.96587058 139.25405014 50.4517103 140.69092832 48 143 C42.52912621 143.7815534 42.52912621 143.7815534 40 143 C37.40331302 140.3586614 36.09380905 138.77695282 35.64453125 135.0559082 C35.69996094 133.98171631 35.75539062 132.90752441 35.8125 131.80078125 C35.84239014 130.59953613 35.87228027 129.39829102 35.90307617 128.16064453 C35.93506104 126.89075684 35.9670459 125.62086914 36 124.3125 C35.99078432 110.81237322 33.0677286 102.96414742 24.43920898 92.78295898 C21.23817782 88.81737279 18.97674224 85.41872357 19.0625 80.1875 C20 77 20 77 23 75 C26.375 74.5625 26.375 74.5625 30 75 C33.96731867 78.38888235 36.60617494 82.27167777 39.1875 86.75 C41.40323891 91.04074981 41.40323891 91.04074981 45 94 C45.2475 93.30261719 45.495 92.60523438 45.75 91.88671875 C47.18163 88.58054823 48.98340566 85.79661479 51 82.8125 C51.70125 81.76707031 52.4025 80.72164063 53.125 79.64453125 C55 77 55 77 57 75 C59.1640625 74.8046875 59.1640625 74.8046875 61.625 74.875 C62.44226563 74.89304687 63.25953125 74.91109375 64.1015625 74.9296875 C64.72804688 74.95289063 65.35453125 74.97609375 66 75 C60.72183931 59.43460062 53.92320824 45.43205607 43 33 C42.33742187 32.19433594 41.67484375 31.38867188 40.9921875 30.55859375 C31.56672056 19.44628125 20.16443264 11.67675319 7.3984375 4.875 C4.71529402 3.39464497 2.3692563 1.92426908 0 0 Z " fill="#D5E9FB" transform="translate(141,278)"/>
<path d="M0 0 C5.73920646 0.55271193 10.77319989 1.66497552 16.1875 3.625 C16.92436035 3.89006348 17.6612207 4.15512695 18.42041016 4.42822266 C35.32809688 10.70591972 50.15540248 21.21132092 62.25 34.5625 C64.7945144 37.27240341 64.7945144 37.27240341 68.1875 37.4375 C71.07073971 37.06900376 71.07073971 37.06900376 74 36 C75.1063219 37.56097474 76.20995785 39.12385327 77.3125 40.6875 C78.23482422 41.99267578 78.23482422 41.99267578 79.17578125 43.32421875 C82.57708793 48.31328744 82.57708793 48.31328744 84 51 C83.28541109 53.14376674 82.58775583 54.41224417 81 56 C80.33072553 60.90801275 81.34131639 64.13827557 83.25 68.6875 C93.76335657 94.98586771 92.74193984 124.84842638 81.875 150.8125 C68.86052783 180.22025332 45.68861881 200.83463275 15.97265625 212.58984375 C10.07293798 214.78454478 4.35310577 216.31765529 -2 216 C0.78487219 213.77073039 3.69283389 212.00755148 6.82104492 210.29931641 C13.80480431 206.47899492 19.98168656 202.24300736 26 197 C26.89332031 196.25105469 27.78664063 195.50210938 28.70703125 194.73046875 C43.81593339 181.65017445 54.21905599 164.85587194 60.3203125 145.9140625 C62 143 62 143 65.5546875 141.6953125 C66.69164062 141.46585938 67.82859375 141.23640625 69 141 C71.12894624 139.38451799 71.12894624 139.38451799 72 137 C71.77962372 133.32706204 71.63033454 131.63033454 69 129 C66.43083343 128.69400937 63.95241616 128.48912913 61.375 128.375 C60.31539063 128.31699219 60.31539063 128.31699219 59.234375 128.2578125 C57.49001476 128.16352276 55.74504309 128.08067109 54 128 C54 127.67 54 127.34 54 127 C57.96 127 61.92 127 66 127 C68.43058281 92.15069776 62.49258209 59.08609369 39 32 C38.33613281 31.19175781 37.67226563 30.38351563 36.98828125 29.55078125 C26.68088306 17.41434382 13.96142236 9.34334553 0 2 C0 1.34 0 0.68 0 0 Z " fill="#D5E9FB" transform="translate(407,17)"/>
<path d="M0 0 C0.33 50.16 0.66 100.32 1 152 C-18 152 -18 152 -22 149 C-23.04877236 145.85368291 -23.12323224 143.66455709 -23.12025452 140.36225891 C-23.12162918 139.1885675 -23.12300385 138.0148761 -23.12442017 136.80561829 C-23.12082489 135.51665146 -23.11722961 134.22768463 -23.11352539 132.8996582 C-23.11324334 131.529775 -23.1134016 130.15989166 -23.1139679 128.79000854 C-23.11425518 125.06921727 -23.10836949 121.34845814 -23.10139394 117.62767434 C-23.09514904 113.73991829 -23.0945557 109.85216153 -23.09336853 105.96440125 C-23.09025858 98.60151443 -23.08204969 91.23864244 -23.07201904 83.87576216 C-23.0608475 75.49375013 -23.05534483 67.11173739 -23.05032361 58.72971976 C-23.03986682 41.48647126 -23.02227385 24.2432372 -23 7 C-19.7318568 5.82569926 -16.46007485 4.66188744 -13.1875 3.5 C-12.25873047 3.16613281 -11.32996094 2.83226562 -10.37304688 2.48828125 C-9.48037109 2.17246094 -8.58769531 1.85664063 -7.66796875 1.53125 C-6.84578857 1.23798828 -6.0236084 0.94472656 -5.17651367 0.64257812 C-3 0 -3 0 0 0 Z " fill="#97E199" transform="translate(440,239)"/>
<path d="M0 0 C6.27 0 12.54 0 19 0 C18.67 50.16 18.34 100.32 18 152 C14.65037589 151.33007518 11.75897575 150.66670403 8.57421875 149.58984375 C7.77822266 149.32236328 6.98222656 149.05488281 6.16210938 148.77929688 C5.34548828 148.50150391 4.52886719 148.22371094 3.6875 147.9375 C2.85154297 147.65583984 2.01558594 147.37417969 1.15429688 147.08398438 C-0.89805624 146.39204818 -2.94915483 145.69639291 -5 145 C-5.11679583 126.83268592 -5.20496967 108.66546926 -5.25906086 90.49786091 C-5.28484381 82.06232974 -5.31999585 73.62703184 -5.37719727 65.19165039 C-5.42702972 57.83945075 -5.45929036 50.48742003 -5.47044247 43.1350562 C-5.47696161 39.24185125 -5.4922845 35.34912956 -5.52865028 31.45607948 C-5.56260781 27.79111996 -5.57305381 24.12684239 -5.56553841 20.46174049 C-5.56756822 18.47663295 -5.59446481 16.49159956 -5.62210083 14.50668335 C-5.61522751 13.32182846 -5.60835419 12.13697357 -5.60127258 10.91621399 C-5.60588155 9.88841481 -5.61049051 8.86061563 -5.61523914 7.80167103 C-5 5 -5 5 0 0 Z " fill="#25A2F8" transform="translate(160,121)"/>
<path d="M0 0 C0.89074219 -0.00515625 1.78148437 -0.0103125 2.69921875 -0.015625 C3.61832031 -0.00015625 4.53742187 0.0153125 5.484375 0.03125 C6.83982422 0.00804687 6.83982422 0.00804687 8.22265625 -0.015625 C15.295966 0.0250847 21.78297724 1.34248777 27.11767578 6.27124023 C31.72739816 11.3060187 33.53866261 15.56560472 33.4609375 22.49609375 C33.234375 24.53125 33.234375 24.53125 31.859375 27.96875 C30.85141745 31.39404548 30.85141745 31.39404548 32.4375 33.4765625 C32.98921875 34.17523438 33.5409375 34.87390625 34.109375 35.59375 C38.52003026 41.50160017 38.18922745 47.43686382 37.234375 54.53125 C35.70438337 60.49066182 32.31783321 63.76226611 27.4296875 67.3046875 C20.85743925 70.97672656 14.5256702 70.89740599 7.171875 70.90625 C6.09615234 70.93074219 5.02042969 70.95523438 3.91210938 70.98046875 C2.87248047 70.98433594 1.83285156 70.98820312 0.76171875 70.9921875 C-0.17937744 71.00040527 -1.12047363 71.00862305 -2.09008789 71.01708984 C-5.65554558 70.36965296 -7.2003588 69.07116554 -9.765625 66.53125 C-10.40054321 63.72338867 -10.40054321 63.72338867 -10.41259766 60.44921875 C-10.42835846 59.22114502 -10.44411926 57.99307129 -10.46035767 56.7277832 C-10.45140781 55.39142967 -10.4411528 54.05508432 -10.4296875 52.71875 C-10.43305721 51.34398978 -10.43791113 49.96923246 -10.44418335 48.59448242 C-10.45154768 45.71601949 -10.44086528 42.83833341 -10.41748047 39.95996094 C-10.38899061 36.27398348 -10.40539727 32.5898261 -10.43534279 28.90391541 C-10.45342905 26.06590104 -10.44765217 23.22831677 -10.43470383 20.39028931 C-10.43137337 19.0315428 -10.4354444 17.67275698 -10.44710159 16.3140564 C-10.45982799 14.41380582 -10.43698355 12.51341796 -10.41259766 10.61328125 C-10.40861969 9.53280518 -10.40464172 8.4523291 -10.40054321 7.33911133 C-9.20374554 2.04639516 -5.14982618 0.02917749 0 0 Z " fill="#030304" transform="translate(50.765625,351.46875)"/>
<path d="M0 0 C2.23755455 1.61672878 2.23755455 1.61672878 4.36605835 3.75132751 C5.18206512 4.55757065 5.9980719 5.36381378 6.83880615 6.19448853 C7.7149054 7.08542206 8.59100464 7.97635559 9.49365234 8.89428711 C10.43928091 9.83805086 11.38599566 10.78072734 12.33370972 11.72239685 C14.89849323 14.27721627 17.44744761 16.84731011 19.9935565 19.42072368 C22.65974313 22.11075135 25.33932287 24.78737515 28.01724243 27.4657135 C32.50939525 31.96249185 36.9919396 36.46866659 41.46826172 40.98120117 C46.64866865 46.20340354 51.84111632 51.41337443 57.04080999 56.61636919 C62.5731594 62.15231295 68.09784074 67.69585589 73.61964083 73.2423203 C75.21367529 74.84259225 76.80901058 76.44155815 78.40458298 78.04029655 C81.37016283 81.01285231 84.32694881 83.9940041 87.28271484 86.97631836 C88.17095947 87.86522766 89.0592041 88.75413696 89.97436523 89.66998291 C91.17299698 90.88357735 91.17299698 90.88357735 92.39584351 92.12168884 C93.09598761 92.82648345 93.79613171 93.53127806 94.51749229 94.25743008 C96 96 96 96 96 98 C84.45 98 72.9 98 61 98 C61 97.67 61 97.34 61 97 C65.29 97 69.58 97 74 97 C71.80119943 93.33533239 70.36853906 91.11931504 67.48823547 88.24772644 C66.78573669 87.54247833 66.08323792 86.83723022 65.35945129 86.11061096 C64.59412582 85.35247604 63.82880035 84.59434113 63.0402832 83.81323242 C62.23029877 83.00295593 61.42031433 82.19267944 60.58578491 81.35784912 C57.91216451 78.68562003 55.2315336 76.02054149 52.55078125 73.35546875 C50.69375265 71.50217097 48.83716565 69.64843062 46.98100281 67.79426575 C42.59706515 63.41653547 38.20805585 59.04392694 33.81718749 54.67314941 C28.81688483 49.69522885 23.82228393 44.71160409 18.82814658 39.72749937 C8.55841675 29.47865473 -1.71843154 19.23696798 -12 9 C-15.15227151 10.39636521 -17.27940382 12.03170975 -19.70794678 14.46743774 C-20.7889994 15.54436638 -20.7889994 15.54436638 -21.89189148 16.64305115 C-23.06253899 17.82448448 -23.06253899 17.82448448 -24.25683594 19.02978516 C-25.08647354 19.85913071 -25.91611115 20.68847626 -26.77088928 21.54295349 C-29.51348464 24.28694281 -32.2489268 27.03794973 -34.984375 29.7890625 C-36.88338767 31.69291568 -38.7839031 33.59526595 -40.68438721 35.49765015 C-45.17547851 39.99495491 -49.66144767 44.49733311 -54.14559674 49.00155866 C-59.25167538 54.13000044 -64.36344159 59.25275698 -69.47569227 64.37504506 C-79.99013569 74.91038746 -90.49665967 85.45358603 -101 96 C-85.16 96.495 -85.16 96.495 -69 97 C-69 97.33 -69 97.66 -69 98 C-80.55 98 -92.1 98 -104 98 C-102.21461493 94.42922986 -100.94497537 92.6955695 -98.2043457 89.95710754 C-97.41355621 89.16212357 -96.62276672 88.36713959 -95.80801392 87.54806519 C-94.93937714 86.68504791 -94.07074036 85.82203064 -93.17578125 84.93286133 C-92.26186615 84.01704788 -91.34795105 83.10123444 -90.40634155 82.15766907 C-87.90270464 79.64918968 -85.39287024 77.14699698 -82.88174057 74.64602113 C-80.25552025 72.02858816 -77.63457718 69.40588068 -75.01293945 66.78385925 C-70.61131277 62.38316871 -66.20583218 57.9863666 -61.79785156 53.59204102 C-56.69805885 48.50798791 -51.60352583 43.41871286 -46.51196384 38.32641774 C-41.61607212 33.42991623 -36.71733166 28.53627576 -31.81698608 23.6442318 C-29.73012056 21.56090108 -27.64411026 19.4767195 -25.55874634 17.39188576 C-22.6502332 14.48456125 -19.73748579 11.58151594 -16.82421875 8.67895508 C-15.95558197 7.80986511 -15.08694519 6.94077515 -14.19198608 6.04534912 C-13.40119659 5.25882462 -12.6104071 4.47230011 -11.7956543 3.66194153 C-11.1069072 2.97487027 -10.4181601 2.28779902 -9.70854187 1.57990742 C-6.36141539 -1.51521717 -4.32172733 -1.0941448 0 0 Z " fill="#299FF1" transform="translate(129,16)"/>
<path d="M0 0 C2.14060172 1.77434252 2.90091843 3.23340484 3.25726318 5.990448 C3.36192576 8.53867164 3.36215316 11.07086141 3.3359375 13.62109375 C3.34844838 15.54492526 3.36148543 17.46875341 3.375 19.39257812 C3.37893242 22.41882184 3.37496506 25.44473494 3.36035156 28.47094727 C3.35177992 31.39649727 3.37346404 34.32066535 3.3984375 37.24609375 C3.38509369 38.14831161 3.37174988 39.05052948 3.35800171 39.98008728 C3.41092015 44.48347881 3.53545652 46.39802867 6.36767578 50.06811523 C9.35799172 52.26273312 10.82660674 52.6765926 14.5 52.625 C15.4178125 52.63789063 16.335625 52.65078125 17.28125 52.6640625 C21.20308746 51.70614243 22.53526088 50.19389323 25 47 C25.70899413 43.74607205 25.65065652 40.56549818 25.6015625 37.24609375 C25.60956879 36.30822525 25.61757507 35.37035675 25.62582397 34.40406799 C25.64886869 31.41477002 25.63943542 28.42683434 25.625 25.4375 C25.6211531 22.44485102 25.62457694 19.45280168 25.64559937 16.46022034 C25.65769328 14.60050546 25.6550115 12.74062213 25.63589478 10.88096619 C25.66273978 4.67988095 25.66273978 4.67988095 27.27490234 1.42993164 C29.66234273 -0.5490152 31.94342785 -0.48467712 34.96484375 -0.53125 C38.09486501 0.2857997 39.07031363 1.37038261 41 4 C41.62274587 7.37274273 41.58413634 10.71459596 41.56640625 14.13671875 C41.57260483 15.13073196 41.57880341 16.12474518 41.58518982 17.14888 C41.59229117 19.25280784 41.58910851 21.35679183 41.57641602 23.46069336 C41.56262242 26.65911315 41.59653066 29.85456494 41.63476562 33.05273438 C41.63571759 35.10156321 41.63385388 37.15039567 41.62890625 39.19921875 C41.64216446 40.14641281 41.65542267 41.09360687 41.66908264 42.06950378 C41.56542347 49.57415321 39.47658636 55.37013908 34.22657776 60.85160828 C27.82225845 66.71448757 20.94630359 69.43743039 12.23828125 69.2734375 C4.17270237 68.28811373 -2.7693632 64.10161947 -8 58 C-11.66639966 51.34122287 -12.59882594 45.03604176 -12.53125 37.5390625 C-12.5350769 36.58607269 -12.53890381 35.63308289 -12.54284668 34.6512146 C-12.54554751 32.65630015 -12.53831578 30.66134917 -12.52148438 28.66650391 C-12.49990472 25.61151073 -12.52142137 22.5588309 -12.546875 19.50390625 C-12.54423419 17.55728649 -12.53911432 15.61066817 -12.53125 13.6640625 C-12.53934692 12.7536319 -12.54744385 11.84320129 -12.55578613 10.90518188 C-12.46242577 4.62371505 -12.46242577 4.62371505 -10.09399414 1.42919922 C-6.5070495 -1.01897309 -4.27146141 -0.5424078 0 0 Z " fill="#030404" transform="translate(109,353)"/>
<path d="M0 0 C4.42068798 1.70540913 8.72110849 3.66319709 11.89453125 7.24609375 C13.01953125 10.68359375 13.01953125 10.68359375 12.89453125 14.24609375 C10.53550425 17.60592008 9.07622491 19.01489282 5.01953125 19.80859375 C1.724088 19.21541396 -0.42728041 17.96712837 -3.2421875 16.20703125 C-7.10631823 14.21420911 -11.34212923 13.93750933 -15.60546875 14.68359375 C-16.10046875 14.86921875 -16.59546875 15.05484375 -17.10546875 15.24609375 C-17.10546875 16.89609375 -17.10546875 18.54609375 -17.10546875 20.24609375 C-16.54674072 20.44654297 -15.9880127 20.64699219 -15.41235352 20.85351562 C7.36495823 29.14728752 7.36495823 29.14728752 13.0859375 38.11328125 C15.13455416 43.51687883 14.53476714 50.12531238 12.89453125 55.55859375 C8.9859122 60.8108006 4.2617005 65.3404587 -2.10546875 67.24609375 C-13.48904727 68.3417776 -21.95036628 67.61560915 -31.296875 60.6015625 C-33.24576973 58.91201188 -34.73472669 57.42998787 -36.10546875 55.24609375 C-36.22933434 51.53012606 -35.83449368 49.50163668 -33.98046875 46.30859375 C-30.77802271 44.49387432 -28.74069231 44.71840001 -25.10546875 45.24609375 C-22.96484375 46.55859375 -22.96484375 46.55859375 -20.73046875 48.18359375 C-16.30432829 51.37101913 -12.58911472 52.70218036 -7.10546875 52.24609375 C-4.01191217 51.34429039 -4.01191217 51.34429039 -2.10546875 49.24609375 C-1.68765996 46.61914953 -1.68765996 46.61914953 -2.10546875 44.24609375 C-6.02163929 42.20642159 -9.93289643 40.29651362 -14.0234375 38.6328125 C-14.72404297 38.342854 -15.42464844 38.05289551 -16.14648438 37.75415039 C-17.55236139 37.17577719 -18.96375931 36.61060551 -20.38085938 36.06030273 C-26.21449141 33.63832893 -29.08007992 30.56036638 -32.39453125 25.13671875 C-34.25909412 20.17821089 -33.68630462 14.85556494 -31.60546875 10.05859375 C-25.13965147 -1.57057403 -11.83449047 -2.87302725 0 0 Z " fill="#040404" transform="translate(330.10546875,91.75390625)"/>
<path d="M0 0 C11.55 0 23.1 0 35 0 C33.22208769 3.55582461 31.95041079 5.3052443 29.23126221 8.04289246 C28.05374893 9.23536842 28.05374893 9.23536842 26.85244751 10.45193481 C25.99009491 11.31495209 25.12774231 12.17796936 24.23925781 13.06713867 C23.33176788 13.98295212 22.42427795 14.89876556 21.48928833 15.84233093 C19.00233427 18.3512062 16.50885979 20.85349984 14.01346684 23.35397887 C12.45421939 24.9168718 10.89627768 26.48105449 9.33876801 28.04567909 C3.90376115 33.50516932 -1.53693299 38.95892469 -6.98242188 44.40795898 C-12.05664252 49.48581707 -17.11757433 54.57666207 -22.17264056 59.67358226 C-26.51546471 64.0510967 -30.86785727 68.41894257 -35.22771192 72.77949506 C-37.83058538 75.38316157 -40.42932535 77.99065371 -43.01833344 80.60811424 C-45.90564534 83.52644509 -48.81255256 86.42446003 -51.72167969 89.32104492 C-52.57593536 90.19013489 -53.43019104 91.05922485 -54.31033325 91.95465088 C-55.50476547 93.13443764 -55.50476547 93.13443764 -56.72332764 94.33805847 C-57.40838757 95.02512973 -58.09344749 95.71220098 -58.79926682 96.42009258 C-61.55200561 98.39628509 -63.64078722 98.78817042 -67 99 C-69.3359375 97.56640625 -69.3359375 97.56640625 -71.375 95.5625 C-72.06335938 94.90378906 -72.75171875 94.24507813 -73.4609375 93.56640625 C-73.96882813 93.04949219 -74.47671875 92.53257812 -75 92 C-70.54556944 86.66156284 -65.83644479 81.70935505 -60.89916992 76.81738281 C-60.10986084 76.03114029 -59.32055176 75.24489777 -58.50732422 74.43482971 C-56.8044082 72.73903276 -55.10036837 71.04436373 -53.39531517 69.35071564 C-50.69921982 66.67207841 -48.00674273 63.9898529 -45.31526184 61.30657959 C-37.66632323 53.68204571 -30.01172416 46.06321595 -22.3527832 38.44873047 C-17.66009083 33.78318967 -12.97265669 29.11240458 -8.28798866 24.43880463 C-6.50162736 22.65866327 -4.7133694 20.88042315 -2.92320824 19.10410309 C-0.42889259 16.62891707 2.05928226 14.14771215 4.54614258 11.66503906 C5.29053085 10.92941238 6.03491913 10.19378571 6.80186462 9.43586731 C7.8132399 8.42253578 7.8132399 8.42253578 8.845047 7.38873291 C9.43365415 6.80326817 10.0222613 6.21780342 10.62870502 5.61459732 C12.22953349 3.93322547 12.22953349 3.93322547 13 1 C8.71 1 4.42 1 0 1 C0 0.67 0 0.34 0 0 Z " fill="#97DF98" transform="translate(452,398)"/>
<path d="M0 0 C0.65073486 -0.00619858 1.30146973 -0.01239716 1.97192383 -0.01878357 C3.34357207 -0.02586675 4.71530655 -0.0227337 6.08691406 -0.01000977 C8.18195088 0.00386949 10.27252711 -0.03023439 12.3671875 -0.06835938 C13.70312609 -0.06931058 15.03907025 -0.06745164 16.375 -0.0625 C17.58542969 -0.0632251 18.79585938 -0.0639502 20.04296875 -0.06469727 C23.1875 0.56640625 23.1875 0.56640625 25.609375 2.91430664 C27.1875 5.56640625 27.1875 5.56640625 27.25 8.62890625 C25.8802604 12.41583337 24.61757882 13.46076886 21.1875 15.56640625 C18.22937273 16.03712398 15.36056071 15.94653966 12.375 15.81640625 C11.19260742 15.78933594 11.19260742 15.78933594 9.98632812 15.76171875 C8.05285739 15.71484673 6.12001715 15.64311035 4.1875 15.56640625 C4.1875 19.52640625 4.1875 23.48640625 4.1875 27.56640625 C5.36828125 27.52 6.5490625 27.47359375 7.765625 27.42578125 C9.32289134 27.38825676 10.88018508 27.35185732 12.4375 27.31640625 C13.21480469 27.28289062 13.99210937 27.249375 14.79296875 27.21484375 C20.56788528 27.11612723 20.56788528 27.11612723 23.703125 29.39453125 C25.72803223 32.35729025 25.77366142 34.04943774 25.1875 37.56640625 C23.3204009 39.86916181 21.83102259 41.24464496 19.1875 42.56640625 C16.63592345 42.63807975 14.11277029 42.65949067 11.5625 42.62890625 C10.85609375 42.62439453 10.1496875 42.61988281 9.421875 42.61523438 C7.67704725 42.603445 5.932263 42.58550949 4.1875 42.56640625 C4.1875 46.19640625 4.1875 49.82640625 4.1875 53.56640625 C5.34507812 53.50839844 6.50265625 53.45039063 7.6953125 53.390625 C9.23433448 53.3437036 10.77340033 53.29820599 12.3125 53.25390625 C13.07304687 53.21201172 13.83359375 53.17011719 14.6171875 53.12695312 C18.73211931 53.03826925 21.42099744 53.29027363 24.73828125 55.859375 C27.1875 58.56640625 27.1875 58.56640625 27.25 62.19140625 C25.83623913 66.68217607 25.83623913 66.68217607 23.1875 68.56640625 C18.93123684 69.15607783 14.65545107 69.08141035 10.36352539 69.06738281 C8.25983651 69.06641079 6.15980224 69.10802001 4.05664062 69.15234375 C2.71615342 69.15755151 1.37565357 69.16023893 0.03515625 69.16015625 C-1.18163818 69.16724609 -2.39843262 69.17433594 -3.65209961 69.18164062 C-6.8125 68.56640625 -6.8125 68.56640625 -8.97767639 66.39796448 C-11.08435472 63.14687139 -11.31816866 61.48197459 -11.33007812 57.64624023 C-11.34268677 56.47830429 -11.35529541 55.31036835 -11.36828613 54.10704041 C-11.36018921 52.85484207 -11.35209229 51.60264374 -11.34375 50.3125 C-11.3475769 49.01949478 -11.35140381 47.72648956 -11.35534668 46.39430237 C-11.36123054 43.66314492 -11.3527145 40.93251226 -11.33398438 38.20141602 C-11.31117139 34.70512192 -11.32433766 31.21005454 -11.34827423 27.7138052 C-11.36622064 24.3716056 -11.35364933 21.02973443 -11.34375 17.6875 C-11.35184692 16.43327744 -11.35994385 15.17905487 -11.36828613 13.88682556 C-11.35567749 12.72204178 -11.34306885 11.557258 -11.33007812 10.35717773 C-11.32689575 9.33301254 -11.32371338 8.30884735 -11.32043457 7.25364685 C-10.10944645 0.84688376 -5.84127805 0.05248752 0 0 Z " fill="#040404" transform="translate(364.8125,90.43359375)"/>
<path d="M0 0 C3.96731867 3.38888235 6.60617494 7.27167777 9.1875 11.75 C11.40323891 16.04074981 11.40323891 16.04074981 15 19 C15.2475 18.30261719 15.495 17.60523438 15.75 16.88671875 C17.18163 13.58054823 18.98340566 10.79661479 21 7.8125 C22.051875 6.24435547 22.051875 6.24435547 23.125 4.64453125 C25 2 25 2 27 0 C33.90410959 -0.54794521 33.90410959 -0.54794521 37 1 C38.62007744 4.24015487 38.51789834 7.4935606 38 11 C36.79191026 13.73670734 35.15020049 16.03919905 33.375 18.4375 C32.05736798 20.30248671 30.74059538 22.16794883 29.42993164 24.0378418 C28.45140404 25.38058147 27.42079865 26.68645768 26.34936523 27.95629883 C20.9687957 34.80538712 21.20679156 41.35159664 21.3125 49.8125 C21.32142606 52.40233131 21.31807311 54.99224228 21.30078125 57.58203125 C21.31278564 58.71874268 21.32479004 59.8554541 21.3371582 61.02661133 C20.96082129 64.34551598 20.41541961 65.71499598 18 68 C12.52912621 68.7815534 12.52912621 68.7815534 10 68 C7.40331302 65.3586614 6.09380905 63.77695282 5.64453125 60.0559082 C5.69996094 58.98171631 5.75539062 57.90752441 5.8125 56.80078125 C5.84239014 55.59953613 5.87228027 54.39829102 5.90307617 53.16064453 C5.93506104 51.89075684 5.9670459 50.62086914 6 49.3125 C5.99078432 35.81237322 3.0677286 27.96414742 -5.56079102 17.78295898 C-8.76182218 13.81737279 -11.02325776 10.41872357 -10.9375 5.1875 C-9.22579003 -0.63231388 -5.44909996 -0.65764999 0 0 Z " fill="#030304" transform="translate(171,353)"/>
<path d="M0 0 C3.3358294 1.20657659 4.70126397 2.33647464 6.9375 5.0625 C7.41851807 7.44171143 7.41851807 7.44171143 7.39160156 10.10644531 C7.39129944 11.10718079 7.39099731 12.10791626 7.39068604 13.13897705 C7.37004089 14.21202087 7.34939575 15.2850647 7.328125 16.390625 C7.32246521 17.49476746 7.31680542 18.59890991 7.31097412 19.73651123 C7.28858768 23.26228226 7.23838496 26.78703624 7.1875 30.3125 C7.16743803 32.70311032 7.14918674 35.09373658 7.1328125 37.484375 C7.08871543 43.34409687 7.02177998 49.20322578 6.9375 55.0625 C7.97390625 55.00449219 9.0103125 54.94648438 10.078125 54.88671875 C11.44787156 54.83980962 12.81766692 54.79431068 14.1875 54.75 C14.86941406 54.70810547 15.55132812 54.66621094 16.25390625 54.62304688 C20.06417311 54.53056467 21.59744531 54.74333056 24.41796875 57.390625 C25.9375 60.0625 25.9375 60.0625 26 63.125 C24.59696401 67.00398186 23.516865 67.96012205 19.9375 70.0625 C16.0959298 70.67979408 12.32124478 70.66621327 8.4375 70.625 C6.88869141 70.66077148 6.88869141 70.66077148 5.30859375 70.69726562 C4.30957031 70.69533203 3.31054688 70.69339844 2.28125 70.69140625 C1.37568359 70.69213135 0.47011719 70.69285645 -0.46289062 70.69360352 C-4.51550943 69.70975494 -5.72120412 68.56305065 -8.0625 65.0625 C-8.8148576 60.58608198 -8.76263978 56.15530182 -8.7265625 51.625 C-8.73134613 50.31217041 -8.73612976 48.99934082 -8.74105835 47.64672852 C-8.74841486 44.87258373 -8.73776586 42.09924598 -8.71435547 39.32519531 C-8.68586572 35.77720402 -8.70227664 32.23110373 -8.73221779 28.68318176 C-8.75467705 25.28863804 -8.73893158 21.89459739 -8.7265625 18.5 C-8.73668365 17.22906494 -8.74680481 15.95812988 -8.75723267 14.64868164 C-8.62699166 4.85855229 -8.62699166 4.85855229 -5.71240234 1.7265625 C-3.0625 0.0625 -3.0625 0.0625 0 0 Z " fill="#050505" transform="translate(454.0625,89.9375)"/>
<path d="M0 0 C4.09076507 0.58439501 4.98420786 1.32473414 7.5 4.5 C7.98101807 6.87921143 7.98101807 6.87921143 7.95410156 9.54394531 C7.95379944 10.54468079 7.95349731 11.54541626 7.95318604 12.57647705 C7.93254089 13.64952087 7.91189575 14.7225647 7.890625 15.828125 C7.88496521 16.93226746 7.87930542 18.03640991 7.87347412 19.17401123 C7.85108768 22.69978226 7.80088496 26.22453624 7.75 29.75 C7.72993803 32.14061032 7.71168674 34.53123658 7.6953125 36.921875 C7.65121543 42.78159687 7.58427998 48.64072578 7.5 54.5 C8.53640625 54.45359375 9.5728125 54.4071875 10.640625 54.359375 C12.01038779 54.32184725 13.38018182 54.28544816 14.75 54.25 C15.77287109 54.19972656 15.77287109 54.19972656 16.81640625 54.1484375 C20.28011666 54.08118099 22.1403231 54.23196053 24.953125 56.328125 C27.05748367 59.2827296 27.09194451 60.94833292 26.5 64.5 C24.6329009 66.80275556 23.14352259 68.17823871 20.5 69.5 C16.7146452 69.79452482 12.92047488 69.77795381 9.125 69.8125 C7.54332031 69.85600586 7.54332031 69.85600586 5.9296875 69.90039062 C4.91390625 69.90876953 3.898125 69.91714844 2.8515625 69.92578125 C1.92166504 69.94036377 0.99176758 69.95494629 0.03369141 69.9699707 C-3.25425604 69.36009415 -4.40551119 68.04339239 -6.5 65.5 C-7.8168771 62.8662458 -7.64885629 60.8699316 -7.67700195 57.92041016 C-7.69625481 56.16816635 -7.69625481 56.16816635 -7.71589661 54.38052368 C-7.72328354 53.11284149 -7.73067047 51.8451593 -7.73828125 50.5390625 C-7.746353 49.24181244 -7.75442474 47.94456238 -7.76274109 46.60800171 C-7.77776646 43.85911184 -7.78760557 41.1102478 -7.79516602 38.36132812 C-7.80623419 34.84154559 -7.84063901 31.32239464 -7.88033772 27.80283546 C-7.91277679 24.44410276 -7.9172801 21.0854398 -7.92578125 17.7265625 C-7.95204338 15.83111191 -7.95204338 15.83111191 -7.97883606 13.89736938 C-7.97591049 12.72290253 -7.97298492 11.54843567 -7.9699707 10.33837891 C-7.97583694 9.3051651 -7.98170319 8.27195129 -7.98774719 7.20742798 C-7.11439993 2.35957883 -4.73087434 0.67583919 0 0 Z " fill="#030303" transform="translate(409.5,90.5)"/>
<path d="M0 0 C2.0625 -0.04125 4.125 -0.0825 6.25 -0.125 C7.99023438 -0.15980469 7.99023438 -0.15980469 9.765625 -0.1953125 C12.84681133 -0.00925052 14.4785909 0.28304047 17 2 C18.56430248 5.12860495 18.35627284 7.55602925 18 11 C15.2520331 13.89636735 13.66377354 14.92218364 9.66796875 15.390625 C6.4453125 15.26041667 3.22265625 15.13020833 0 15 C0 10.05 0 5.1 0 0 Z " fill="#D9E4EC" transform="translate(55,392)"/>
<path d="M0 0 C1.5675 -0.061875 3.135 -0.12375 4.75 -0.1875 C6.07257812 -0.23970703 6.07257812 -0.23970703 7.421875 -0.29296875 C10.44671583 0.05076316 11.75583602 1.00227459 14 3 C13.625 5.9375 13.625 5.9375 13 9 C10.35541621 10.32229189 8.32238699 10.09677194 5.375 10.0625 C4.37210938 10.05347656 3.36921875 10.04445313 2.3359375 10.03515625 C1.56507812 10.02355469 0.79421875 10.01195312 0 10 C0 6.7 0 3.4 0 0 Z " fill="#D6E1E9" transform="translate(55,367)"/>
</svg>
