<?xml version="1.0" encoding="UTF-8"?>
<svg version="1.1" xmlns="http://www.w3.org/2000/svg" width="512" height="512">
<path d="M0 0 C0.99145895 -0.06919163 1.9829179 -0.13838327 3.00442106 -0.20967162 C6.31017724 -0.43341204 9.61683223 -0.62979727 12.92449951 -0.82310486 C15.30831473 -0.97204605 17.69212888 -1.12100439 20.07594204 -1.26997852 C193.00981791 -11.74865767 193.00981791 -11.74865767 298.12298584 27.34266663 C332.10090903 58.73348921 343.4685718 96.11721738 345.48857117 140.7979126 C346.67203065 171.69600213 343.94573402 202.51198829 339.7868042 233.10682678 C340.67038919 232.82468763 341.55397419 232.54254848 342.46433449 232.25185966 C343.62823393 231.88575144 344.79213337 231.51964321 345.99130249 231.1424408 C347.14301249 230.77780165 348.29472248 230.4131625 349.48133278 230.03747368 C360.25881694 227.00310099 369.87988427 230.91288149 380.1383667 234.22401428 C381.84063568 234.76182635 383.54331236 235.29834947 385.24636841 235.83366394 C389.73270158 237.24753502 394.21345254 238.67833803 398.69317627 240.11299133 C403.13403518 241.53222771 407.57965356 242.93636822 412.02508545 244.34120178 C417.25335791 245.99383861 422.48062634 247.64933852 427.703125 249.32014465 C435.89466732 251.93891547 444.09342682 254.51789054 452.33270264 256.98280334 C454.54376713 257.65027434 456.75455687 258.31864901 458.96531296 258.98714066 C460.99868275 259.5962004 463.03651412 260.18813296 465.07504272 260.77964783 C466.28880585 261.14687958 467.50256897 261.51411133 468.75311279 261.89247131 C470.32976212 262.35630722 470.32976212 262.35630722 471.93826294 262.82951355 C475.63406782 264.48674792 477.41977518 265.77710808 479.7868042 269.10682678 C480.51241503 272.73570998 480.45965084 276.29909407 480.41790771 279.98963928 C480.42864067 281.63725754 480.42864067 281.63725754 480.43959045 283.31816101 C480.45651858 286.95647103 480.43702868 290.59355444 480.41571045 294.23182678 C480.41653971 296.77512208 480.41900123 299.31841733 480.42301941 301.86170959 C480.4258815 307.20498613 480.41168619 312.54783239 480.38372803 317.89100647 C480.3519373 324.01262879 480.35158805 330.13361149 480.3689428 336.25527763 C480.38500675 342.18890856 480.37782978 348.12234873 480.36100578 354.0559845 C480.355878 356.55618274 480.35623884 359.05639931 480.36255074 361.55659485 C480.43016195 404.49340818 466.96652522 442.90398374 436.4118042 473.85682678 C418.24969656 491.75851691 396.07260195 503.74051846 371.7868042 511.10682678 C371.02883545 511.35432678 370.2708667 511.60182678 369.4899292 511.85682678 C350.10710898 517.62361627 328.79900563 506.96491184 311.9664917 498.13026428 C303.34666026 493.4541923 294.50716777 488.09411863 287.72214592 480.92541569 C282.34698464 475.45953061 278.67002796 473.08032348 270.96173298 472.94689447 C269.87067183 472.97331181 268.77961067 472.99972915 267.65548706 473.02694702 C265.8790256 473.01563705 265.8790256 473.01563705 264.06667602 473.00409859 C260.8047644 472.99218049 257.5461127 473.02024797 254.28458953 473.06564748 C250.75758069 473.10473173 247.23071597 473.09129773 243.70355225 473.08418274 C237.59851545 473.07871469 231.49430895 473.10535507 225.38946915 473.15345192 C216.55006258 473.22251311 207.71123014 473.23583267 198.87158535 473.23470881 C184.51097275 473.23382671 170.15069569 473.26861516 155.79022217 473.33021545 C154.93174662 473.33388822 154.07327108 473.33756098 153.18878113 473.34134503 C149.71069019 473.35627291 146.23259952 473.37126184 142.75450922 473.38633727 C133.18440168 473.42745977 123.61427429 473.46149948 114.04412842 473.49232483 C112.75890345 473.49647973 112.75890345 473.49647973 111.44771434 473.50071857 C97.14139246 473.54610599 82.83510975 473.56750232 68.52871978 473.57435769 C59.71573746 473.57993325 50.90338157 473.60845039 42.09058903 473.66704872 C36.04852643 473.70605362 30.00663674 473.72413126 23.9644493 473.72604648 C20.48316337 473.72797194 17.00264562 473.73974312 13.52155685 473.77831078 C9.73787746 473.81522063 5.95589754 473.8148692 2.17208862 473.80575562 C1.08548891 473.82548079 -0.0011108 473.84520597 -1.12063777 473.86552888 C-9.84487607 473.78167895 -17.54402231 471.15558032 -24.2199834 465.3666926 C-25.79433625 463.70888517 -27.0040927 462.045555 -28.2131958 460.10682678 C-28.75788718 459.24840368 -28.75788718 459.24840368 -29.31358242 458.3726387 C-33.3457091 450.72619942 -32.78326594 442.59102557 -32.74664307 434.19178772 C-32.75370906 432.48430132 -32.76245693 430.77682119 -32.77275085 429.0693512 C-32.79516984 424.45388966 -32.79232402 419.83877221 -32.78342938 415.22327709 C-32.77830706 411.36604382 -32.78562155 407.50887449 -32.79290146 403.65164781 C-32.80987419 394.55494443 -32.80635823 385.45840894 -32.78961182 376.36170959 C-32.77266275 366.97917868 -32.78856914 357.59711208 -32.8208347 348.2146318 C-32.8475144 340.15070968 -32.85481189 332.08693226 -32.84631962 324.02297044 C-32.84138939 319.21003541 -32.84361229 314.39738022 -32.86410713 309.58448029 C-32.88244091 305.06327667 -32.87653414 300.54274336 -32.85190773 296.02157593 C-32.84689395 294.36273789 -32.85040435 292.70384894 -32.86305618 291.04505157 C-32.87896371 288.78034474 -32.86406219 286.51785212 -32.84138489 284.25325012 C-32.84079858 282.98641262 -32.84021227 281.71957512 -32.83960819 280.4143486 C-32.03502102 276.16604563 -30.65946788 274.65850006 -27.2131958 272.10682678 C-25.5631958 272.10682678 -23.9131958 272.10682678 -22.2131958 272.10682678 C-22.2131958 263.85682678 -22.2131958 255.60682678 -22.2131958 247.10682678 C-23.8631958 247.10682678 -25.5131958 247.10682678 -27.2131958 247.10682678 C-30.32870266 245.02982221 -31.93649066 243.45714789 -32.70147705 239.72401428 C-32.94024488 235.15331585 -32.69621138 232.79684904 -30.0256958 228.98182678 C-27.2131958 227.10682678 -27.2131958 227.10682678 -22.2131958 227.10682678 C-22.2131958 218.85682678 -22.2131958 210.60682678 -22.2131958 202.10682678 C-23.8631958 202.10682678 -25.5131958 202.10682678 -27.2131958 202.10682678 C-30.65259817 199.55790206 -32.03308923 198.04701356 -32.84519482 193.8076849 C-32.84837876 192.54474385 -32.85156271 191.28180281 -32.85484314 189.98059082 C-32.86334866 189.27424738 -32.87185418 188.56790393 -32.88061744 187.84015614 C-32.90286237 185.47858415 -32.88945902 183.11859176 -32.8760376 180.75697327 C-32.88445236 179.0614306 -32.89497819 177.36589728 -32.90745544 175.67037964 C-32.93452891 171.06654538 -32.92979396 166.46325256 -32.91775489 161.85937381 C-32.91062148 158.01044463 -32.91912516 154.16161548 -32.92766029 150.31269413 C-32.94762356 141.22436753 -32.94203558 132.13630383 -32.91998291 123.04798889 C-32.89766478 113.69172971 -32.91515959 104.33616216 -32.9530322 94.97996849 C-32.98434702 86.93468279 -32.99215634 78.88961027 -32.98107845 70.84427124 C-32.97461134 66.04498319 -32.97649614 61.24609322 -33.00040245 56.44685173 C-33.02177167 51.92639326 -33.01352564 47.40690183 -32.98330879 42.88650322 C-32.97701941 41.23544991 -32.98074947 39.58432032 -32.99571991 37.93332291 C-33.08610291 27.07781662 -31.91066521 17.82837396 -24.58994579 9.19180965 C-17.63652501 2.66758122 -9.26915784 0.52748042 0 0 Z " fill="#FEFEFE" transform="translate(32.21319580078125,-1.1068267822265625)"/>
<path d="M0 0 C0.99145895 -0.06919163 1.9829179 -0.13838327 3.00442106 -0.20967162 C6.31017724 -0.43341204 9.61683223 -0.62979727 12.92449951 -0.82310486 C15.30831473 -0.97204605 17.69212888 -1.12100439 20.07594204 -1.26997852 C193.00981791 -11.74865767 193.00981791 -11.74865767 298.12298584 27.34266663 C332.10090903 58.73348921 343.4685718 96.11721738 345.48857117 140.7979126 C346.67203065 171.69600213 343.94573402 202.51198829 339.7868042 233.10682678 C340.67038919 232.82468763 341.55397419 232.54254848 342.46433449 232.25185966 C343.62823393 231.88575144 344.79213337 231.51964321 345.99130249 231.1424408 C347.14301249 230.77780165 348.29472248 230.4131625 349.48133278 230.03747368 C360.25881694 227.00310099 369.87988427 230.91288149 380.1383667 234.22401428 C381.84063568 234.76182635 383.54331236 235.29834947 385.24636841 235.83366394 C389.73270158 237.24753502 394.21345254 238.67833803 398.69317627 240.11299133 C403.13403518 241.53222771 407.57965356 242.93636822 412.02508545 244.34120178 C417.25335791 245.99383861 422.48062634 247.64933852 427.703125 249.32014465 C435.89466732 251.93891547 444.09342682 254.51789054 452.33270264 256.98280334 C454.54376713 257.65027434 456.75455687 258.31864901 458.96531296 258.98714066 C460.99868275 259.5962004 463.03651412 260.18813296 465.07504272 260.77964783 C466.28880585 261.14687958 467.50256897 261.51411133 468.75311279 261.89247131 C470.32976212 262.35630722 470.32976212 262.35630722 471.93826294 262.82951355 C475.63406782 264.48674792 477.41977518 265.77710808 479.7868042 269.10682678 C480.51241503 272.73570998 480.45965084 276.29909407 480.41790771 279.98963928 C480.42864067 281.63725754 480.42864067 281.63725754 480.43959045 283.31816101 C480.45651858 286.95647103 480.43702868 290.59355444 480.41571045 294.23182678 C480.41653971 296.77512208 480.41900123 299.31841733 480.42301941 301.86170959 C480.4258815 307.20498613 480.41168619 312.54783239 480.38372803 317.89100647 C480.3519373 324.01262879 480.35158805 330.13361149 480.3689428 336.25527763 C480.38500675 342.18890856 480.37782978 348.12234873 480.36100578 354.0559845 C480.355878 356.55618274 480.35623884 359.05639931 480.36255074 361.55659485 C480.43016195 404.49340818 466.96652522 442.90398374 436.4118042 473.85682678 C418.24969656 491.75851691 396.07260195 503.74051846 371.7868042 511.10682678 C371.02883545 511.35432678 370.2708667 511.60182678 369.4899292 511.85682678 C350.10710898 517.62361627 328.79900563 506.96491184 311.9664917 498.13026428 C303.34666026 493.4541923 294.50716777 488.09411863 287.72214592 480.92541569 C282.34698464 475.45953061 278.67002796 473.08032348 270.96173298 472.94689447 C269.87067183 472.97331181 268.77961067 472.99972915 267.65548706 473.02694702 C265.8790256 473.01563705 265.8790256 473.01563705 264.06667602 473.00409859 C260.8047644 472.99218049 257.5461127 473.02024797 254.28458953 473.06564748 C250.75758069 473.10473173 247.23071597 473.09129773 243.70355225 473.08418274 C237.59851545 473.07871469 231.49430895 473.10535507 225.38946915 473.15345192 C216.55006258 473.22251311 207.71123014 473.23583267 198.87158535 473.23470881 C184.51097275 473.23382671 170.15069569 473.26861516 155.79022217 473.33021545 C154.93174662 473.33388822 154.07327108 473.33756098 153.18878113 473.34134503 C149.71069019 473.35627291 146.23259952 473.37126184 142.75450922 473.38633727 C133.18440168 473.42745977 123.61427429 473.46149948 114.04412842 473.49232483 C112.75890345 473.49647973 112.75890345 473.49647973 111.44771434 473.50071857 C97.14139246 473.54610599 82.83510975 473.56750232 68.52871978 473.57435769 C59.71573746 473.57993325 50.90338157 473.60845039 42.09058903 473.66704872 C36.04852643 473.70605362 30.00663674 473.72413126 23.9644493 473.72604648 C20.48316337 473.72797194 17.00264562 473.73974312 13.52155685 473.77831078 C9.73787746 473.81522063 5.95589754 473.8148692 2.17208862 473.80575562 C1.08548891 473.82548079 -0.0011108 473.84520597 -1.12063777 473.86552888 C-9.84487607 473.78167895 -17.54402231 471.15558032 -24.2199834 465.3666926 C-25.79433625 463.70888517 -27.0040927 462.045555 -28.2131958 460.10682678 C-28.75788718 459.24840368 -28.75788718 459.24840368 -29.31358242 458.3726387 C-33.3457091 450.72619942 -32.78326594 442.59102557 -32.74664307 434.19178772 C-32.75370906 432.48430132 -32.76245693 430.77682119 -32.77275085 429.0693512 C-32.79516984 424.45388966 -32.79232402 419.83877221 -32.78342938 415.22327709 C-32.77830706 411.36604382 -32.78562155 407.50887449 -32.79290146 403.65164781 C-32.80987419 394.55494443 -32.80635823 385.45840894 -32.78961182 376.36170959 C-32.77266275 366.97917868 -32.78856914 357.59711208 -32.8208347 348.2146318 C-32.8475144 340.15070968 -32.85481189 332.08693226 -32.84631962 324.02297044 C-32.84138939 319.21003541 -32.84361229 314.39738022 -32.86410713 309.58448029 C-32.88244091 305.06327667 -32.87653414 300.54274336 -32.85190773 296.02157593 C-32.84689395 294.36273789 -32.85040435 292.70384894 -32.86305618 291.04505157 C-32.87896371 288.78034474 -32.86406219 286.51785212 -32.84138489 284.25325012 C-32.84079858 282.98641262 -32.84021227 281.71957512 -32.83960819 280.4143486 C-32.04190811 276.20241019 -30.55610316 274.7113517 -27.2131958 272.10682678 C-22.02041473 271.35151317 -18.62794089 272.33477754 -14.2131958 275.10682678 C-11.78824883 278.74424724 -11.95857968 280.44075742 -11.94818115 284.77391052 C-11.94379988 285.45489921 -11.93941861 286.1358879 -11.93490458 286.83751261 C-11.92256113 289.12445326 -11.92439425 291.41116523 -11.92608643 293.69813538 C-11.92006365 295.33576804 -11.91313977 296.9733976 -11.90538025 298.61102295 C-11.8904774 302.14032781 -11.88173856 305.66957595 -11.87767029 309.19890976 C-11.8709645 314.77900109 -11.84921883 320.35897096 -11.82513428 325.93901062 C-11.77612851 337.78658757 -11.74383735 349.63419025 -11.7131958 361.48182678 C-11.6801218 374.2645553 -11.64420034 387.04723641 -11.58906507 399.8298918 C-11.56570872 405.37729352 -11.55197341 410.92461106 -11.54557037 416.4720571 C-11.53963308 419.92378161 -11.52553757 423.37543788 -11.50922585 426.82712746 C-11.50334834 428.42790275 -11.50087794 430.02869472 -11.50206566 431.62948036 C-11.50322497 433.81505734 -11.49220731 436.0002509 -11.47821045 438.18577576 C-11.47527733 439.40878576 -11.47234421 440.63179577 -11.4693222 441.89186668 C-11.21358797 445.10190421 -10.72564822 447.27494619 -9.2131958 450.10682678 C-6.03779123 452.22376316 -5.28825688 452.35631306 -1.65859699 452.35292244 C-0.24931225 452.35889558 -0.24931225 452.35889558 1.18844289 452.3649894 C2.2224785 452.35916372 3.25651412 452.35333803 4.32188416 452.34733582 C5.41883946 452.34904467 6.51579477 452.35075351 7.64599115 452.35251415 C11.34037378 452.35582171 15.03457683 452.34478442 18.72894287 452.33387756 C21.36975007 452.33331372 24.0105461 452.3335413 26.65135193 452.33476257 C32.34642094 452.33581222 38.04144419 452.32952732 43.73650169 452.3182869 C51.97063241 452.30204562 60.20474096 452.2968253 68.43888596 452.29431091 C81.79762842 452.28993165 95.15634648 452.27661628 108.51507568 452.25770569 C121.49326454 452.23935287 134.47144678 452.22519344 147.449646 452.21669006 C148.64923596 452.21590189 148.64923596 452.21590189 149.87306007 452.2150978 C153.88497922 452.21248776 157.89689842 452.20996034 161.90881765 452.20747399 C195.2014976 452.1867343 228.49414764 452.15150248 261.7868042 452.10682678 C261.17917236 451.10595032 260.57154053 450.10507385 259.94549561 449.0738678 C259.13466335 447.73206363 258.32396064 446.39018118 257.5133667 445.04823303 C257.11448242 444.39197937 256.71559814 443.73572571 256.30462646 443.05958557 C241.80050667 419.0070437 235.5443946 392.88165434 235.7243042 364.98182678 C235.72933281 363.63026595 235.73389329 362.2787033 235.73797607 360.92713928 C235.74966709 357.65365413 235.76605391 354.38026492 235.7868042 351.10682678 C234.75551297 351.11143575 233.72422174 351.11604471 232.66167927 351.12079334 C207.58264939 351.23172918 182.50365129 351.31392603 157.42442799 351.36588764 C145.29635212 351.39168299 133.16843822 351.42685916 121.04046631 351.48402405 C110.47126668 351.53381801 99.90218433 351.5661081 89.33287066 351.57726926 C83.73504445 351.58379475 78.13755378 351.59915952 72.53983498 351.63547707 C67.2727757 351.669373 62.00619073 351.67989259 56.73903275 351.67236519 C54.80442542 351.67374259 52.8698025 351.68371305 50.93528938 351.70285416 C48.29587909 351.72769246 45.65826498 351.72176622 43.01881409 351.70809937 C42.25129769 351.72266357 41.48378129 351.73722778 40.69300681 351.75223333 C36.68753303 351.69608002 34.97903698 351.26393274 31.83480358 348.69424725 C28.63978505 344.65769509 28.26011564 342.28593093 28.7868042 337.10682678 C31.2243042 334.23182678 31.2243042 334.23182678 33.7868042 332.10682678 C34.1168042 331.77682678 34.4468042 331.44682678 34.7868042 331.10682678 C37.379208 331.00904136 39.94495116 330.97687917 42.53779602 330.98657227 C43.35944447 330.98571784 44.18109292 330.98486342 45.02763981 330.9839831 C47.802282 330.98232578 50.57686477 330.98785376 53.35150146 330.99330139 C55.33191934 330.99358324 57.31233732 330.99342559 59.29275513 330.99285889 C64.68716104 330.9925708 70.08154493 330.9984693 75.47594571 331.00543284 C81.10673999 331.01166456 86.73753472 331.01227004 92.36833191 331.01345825 C103.03913445 331.01657211 113.7099268 331.02478622 124.38072485 331.03480774 C136.52561838 331.0459672 148.6705124 331.05147891 160.81540978 331.05650318 C185.80588044 331.06696879 210.79634132 331.08476962 235.7868042 331.10682678 C235.7868042 319.22682678 235.7868042 307.34682678 235.7868042 295.10682678 C233.29229202 295.11348862 230.79777985 295.12015045 228.22767639 295.12701416 C204.75699454 295.18826564 181.28632321 295.23293971 157.81557941 295.2622633 C145.74809428 295.27774035 133.68066774 295.29884593 121.61322021 295.33314514 C111.09675899 295.36302178 100.58034019 295.38239568 90.06383771 295.38909227 C84.4940514 295.39300745 78.9243865 295.40222619 73.35463905 295.42401695 C68.1139245 295.44435462 62.87338157 295.45066606 57.6326313 295.44614983 C55.70771604 295.44697624 53.78279514 295.45295802 51.85791397 295.46444321 C49.23201429 295.47934474 46.6067646 295.47578897 43.98085022 295.46759033 C43.21722477 295.47632886 42.45359932 295.48506738 41.6668337 295.49407071 C37.1928107 295.45625201 34.35796192 294.84454418 30.7868042 292.10682678 C28.22060723 288.68523083 28.27696366 285.25838545 28.7868042 281.10682678 C31.2243042 278.23182678 31.2243042 278.23182678 33.7868042 276.10682678 C34.1168042 275.77682678 34.4468042 275.44682678 34.7868042 275.10682678 C37.379208 275.00904136 39.94495116 274.97687917 42.53779602 274.98657227 C43.35944447 274.98571784 44.18109292 274.98486342 45.02763981 274.9839831 C47.802282 274.98232578 50.57686477 274.98785376 53.35150146 274.99330139 C55.33191934 274.99358324 57.31233732 274.99342559 59.29275513 274.99285889 C64.68716104 274.9925708 70.08154493 274.9984693 75.47594571 275.00543284 C81.10673999 275.01166456 86.73753472 275.01227004 92.36833191 275.01345825 C103.03913445 275.01657211 113.7099268 275.02478622 124.38072485 275.03480774 C136.52561838 275.0459672 148.6705124 275.05147891 160.81540978 275.05650318 C185.80588024 275.06696879 210.79634165 275.08456928 235.7868042 275.10682678 C235.7249292 273.95053772 235.7249292 273.95053772 235.6618042 272.77088928 C235.7868042 270.10682678 235.7868042 270.10682678 237.7868042 267.48182678 C245.00879679 261.76441598 255.36937217 259.95861893 264.0836792 257.22010803 C265.56482828 256.75359894 267.04596826 256.28706098 268.52709961 255.82049561 C271.61624077 254.84811601 274.7059869 253.8776854 277.79608154 252.90834045 C281.75434085 251.66623323 285.71023867 250.4167742 289.66563034 249.16557026 C292.71673894 248.20176649 295.76944062 247.24308998 298.82260895 246.28583336 C300.28242974 245.82720112 301.74166051 245.36668638 303.20027924 244.90424538 C305.23495656 244.25974032 307.27176743 243.62247676 309.30926514 242.98695374 C310.46650085 242.62293961 311.62373657 242.25892548 312.81604004 241.88388062 C315.7868042 241.10682678 315.7868042 241.10682678 319.7868042 241.10682678 C319.7868042 197.54682678 319.7868042 153.98682678 319.7868042 109.10682678 C298.0068042 109.10682678 276.2268042 109.10682678 253.7868042 109.10682678 C242.13684893 103.28184915 237.02641371 100.52410076 232.61602783 89.14057922 C230.98278927 83.16530155 231.30166056 77.05840788 231.3961792 70.91151428 C231.40365632 69.46849865 231.40934228 68.02547273 231.41333008 66.58244324 C231.42847108 62.81755137 231.46764974 59.05329457 231.512146 55.28865051 C231.5533508 51.43385911 231.57139442 47.57896328 231.5914917 43.72401428 C231.63415825 36.18466489 231.70226532 28.64583543 231.7868042 21.10682678 C201.55204999 21.12030566 171.31741355 21.15921592 141.08275052 21.23368241 C137.51413149 21.24244927 133.94551197 21.25099905 130.37689209 21.25941467 C129.31120994 21.26193327 129.31120994 21.26193327 128.22399887 21.26450274 C116.71695225 21.29118028 105.20995544 21.30026836 93.70288108 21.30286821 C81.89754764 21.30592652 70.09235835 21.32785896 58.28709 21.36735135 C51.65537113 21.38899403 45.02384323 21.40126426 38.39208412 21.39298058 C32.15315636 21.38546229 25.9147232 21.40117336 19.67588615 21.43488693 C17.38333214 21.44314695 15.09072919 21.4428389 12.79817963 21.433424 C9.67269103 21.42185678 6.54883818 21.44083799 3.42347717 21.46759033 C2.51199569 21.45691707 1.6005142 21.44624381 0.66141206 21.43524712 C-3.61965267 21.50381857 -5.67030595 21.73316077 -9.27679729 24.21547508 C-11.65432821 27.7655078 -11.83619247 29.75282967 -11.83224487 34.00769043 C-11.83848385 34.6896824 -11.84472283 35.37167438 -11.85115087 36.07433277 C-11.86603996 38.35325647 -11.84544676 40.6304571 -11.82501221 42.90931702 C-11.82855411 44.54562486 -11.83433252 46.18192917 -11.84217834 47.81822205 C-11.85435331 51.33891586 -11.85089509 54.85912505 -11.83534622 58.37980461 C-11.81103134 63.94781024 -11.82252374 69.51539143 -11.83901978 75.08340454 C-11.86351486 84.89408773 -11.85771393 94.70457796 -11.84521484 104.51527405 C-11.82663354 119.28258531 -11.83148374 134.04985977 -11.86524904 148.81714398 C-11.87675972 154.35098357 -11.87232845 159.88451439 -11.85522866 165.41833675 C-11.84732624 168.86245729 -11.85158518 172.3064881 -11.85893822 175.75060654 C-11.85974788 177.34614091 -11.85540578 178.94168759 -11.84549522 180.53719139 C-11.83260563 182.71804664 -11.83816294 184.89812599 -11.84811401 187.07897949 C-11.84528632 188.90821536 -11.84528632 188.90821536 -11.8424015 190.77440548 C-12.25756334 194.50556897 -13.26281806 196.916052 -15.2131958 200.10682678 C-19.06417329 202.46020191 -22.78124718 202.66082036 -27.2131958 202.10682678 C-30.55494027 199.50948635 -32.03986038 198.01166702 -32.84519482 193.8076849 C-32.84837876 192.54474385 -32.85156271 191.28180281 -32.85484314 189.98059082 C-32.86334866 189.27424738 -32.87185418 188.56790393 -32.88061744 187.84015614 C-32.90286237 185.47858415 -32.88945902 183.11859176 -32.8760376 180.75697327 C-32.88445236 179.0614306 -32.89497819 177.36589728 -32.90745544 175.67037964 C-32.93452891 171.06654538 -32.92979396 166.46325256 -32.91775489 161.85937381 C-32.91062148 158.01044463 -32.91912516 154.16161548 -32.92766029 150.31269413 C-32.94762356 141.22436753 -32.94203558 132.13630383 -32.91998291 123.04798889 C-32.89766478 113.69172971 -32.91515959 104.33616216 -32.9530322 94.97996849 C-32.98434702 86.93468279 -32.99215634 78.88961027 -32.98107845 70.84427124 C-32.97461134 66.04498319 -32.97649614 61.24609322 -33.00040245 56.44685173 C-33.02177167 51.92639326 -33.01352564 47.40690183 -32.98330879 42.88650322 C-32.97701941 41.23544991 -32.98074947 39.58432032 -32.99571991 37.93332291 C-33.08610291 27.07781662 -31.91066521 17.82837396 -24.58994579 9.19180965 C-17.63652501 2.66758122 -9.26915784 0.52748042 0 0 Z " fill="#000000" transform="translate(32.21319580078125,-1.1068267822265625)"/>
<path d="M0 0 C1.97382205 0.64885221 3.94777969 1.29729213 5.921875 1.9453125 C6.86611328 2.25887695 7.81035156 2.57244141 8.78320312 2.89550781 C11.92610581 3.93169464 15.08383509 4.91242223 18.25 5.875 C22.57040101 7.1930316 26.88442017 8.53010841 31.1953125 9.87890625 C32.6160441 10.32325521 34.03678008 10.76759018 35.45751953 11.21191406 C36.23726135 11.45582886 37.01700317 11.69974365 37.82037354 11.9510498 C42.69246694 13.47477941 47.5650272 14.99701538 52.4375 16.51953125 C54.57291849 17.18684314 56.70833513 17.8541609 58.84375 18.52148438 C59.91496094 18.85623779 60.98617187 19.19099121 62.08984375 19.53588867 C70.26367187 22.09020996 70.26367187 22.09020996 78.4375 24.64453125 C79.72829468 25.04790459 79.72829468 25.04790459 81.04516602 25.45942688 C83.48844401 26.22295125 85.93172201 26.98647563 88.375 27.75 C88.4683999 40.27797642 88.53911561 52.80586764 88.58224869 65.33412361 C88.60296861 71.15386532 88.63099503 76.97336581 88.67675781 82.79296875 C88.72077963 88.42756333 88.74425372 94.06192847 88.75450897 99.69668198 C88.7618007 101.8276721 88.77603328 103.95865219 88.79792023 106.08954239 C89.17085623 143.96520338 77.72207785 177.12498224 51.3125 204.8046875 C34.59762494 221.82285667 11.92352774 235.0007171 -11.625 239.75 C-32.77982773 238.55729458 -53.87012211 226.17720783 -69.625 212.75 C-70.51574219 211.99847656 -71.40648437 211.24695313 -72.32421875 210.47265625 C-97.63502545 188.4177573 -112.46528324 158.01177275 -115.625 124.75 C-116.07568258 117.03203802 -115.97847667 109.30547091 -115.91796875 101.578125 C-115.91235504 99.43194886 -115.90809337 97.2857688 -115.90510559 95.1395874 C-115.89379631 89.56334314 -115.86445356 83.98734329 -115.83099365 78.41119385 C-115.79998798 72.69213159 -115.78653591 66.97302881 -115.77148438 61.25390625 C-115.73956677 50.08583167 -115.68854479 38.91793637 -115.625 27.75 C-112.26729707 26.62649527 -108.90908406 25.5045227 -105.55078125 24.3828125 C-104.13400085 23.90871948 -104.13400085 23.90871948 -102.68859863 23.42504883 C-96.73221371 21.43656255 -90.76422438 19.51843382 -84.75390625 17.69921875 C-81.24532854 16.63481877 -77.74765552 15.53707545 -74.25 14.4375 C-67.6160603 12.35624804 -60.96613824 10.32978841 -54.3125 8.3125 C-46.88367605 6.05869434 -39.46493696 3.77660881 -32.0625 1.4375 C-31.29574951 1.19523682 -30.52899902 0.95297363 -29.73901367 0.70336914 C-29.0194751 0.47512451 -28.29993652 0.24687988 -27.55859375 0.01171875 C-26.88038574 -0.20178223 -26.20217773 -0.4152832 -25.50341797 -0.63525391 C-23.83121786 -1.18251149 -22.18097151 -1.79584642 -20.53515625 -2.41796875 C-13.10010005 -4.54369623 -7.04953101 -2.38690618 0 0 Z " fill="#77B0FC" transform="translate(403.625,252.25)"/>
<path d="M0 0 C1.28773186 0.40194554 2.57571028 0.80310192 3.86392212 1.20350647 C6.55037154 2.04070573 9.23469035 2.88430325 11.91748047 3.7331543 C15.36147311 4.82276002 18.80893332 5.90084044 22.25783348 6.97479916 C25.5481613 7.99997905 28.83661219 9.03111803 32.125 10.0625 C33.36655853 10.45106674 34.60811707 10.83963348 35.88729858 11.23997498 C37.02583282 11.60027298 38.16436707 11.96057098 39.33740234 12.33178711 C40.34443207 12.64933456 41.35146179 12.96688202 42.38900757 13.29405212 C44.6640625 14.09765625 44.6640625 14.09765625 45.6640625 15.09765625 C45.77931554 17.12918071 45.82376025 19.16474535 45.84106445 21.19946289 C45.86031731 23.16400169 45.86031731 23.16400169 45.87995911 25.16822815 C45.88813649 26.6147524 45.89557829 28.06128096 45.90234375 29.5078125 C45.90641928 30.23713926 45.9104948 30.96646603 45.91469383 31.7178936 C45.93560906 35.59423415 45.94987485 39.47053896 45.95922852 43.34692383 C45.97017475 47.31056632 46.00441787 51.27362877 46.04440022 55.23706913 C46.07087358 58.31478234 46.07894816 61.39236545 46.08250999 64.47018242 C46.08731445 65.92789977 46.09874744 67.38561383 46.11754799 68.84321785 C46.41603168 93.5652175 37.31188325 116.48139108 20.0390625 134.28515625 C10.76662804 143.42870283 -2.40933972 153.56110344 -15.5859375 155.4140625 C-30.91675777 154.93497437 -46.83118696 140.35113015 -56.734375 130.10546875 C-73.00243351 111.29705275 -78.7186243 88.87019434 -78.53125 64.390625 C-78.52750821 62.92947079 -78.52466677 61.46831402 -78.52267456 60.00715637 C-78.51512965 56.20800541 -78.49556279 52.40901351 -78.4732666 48.60992432 C-78.45260816 44.71458079 -78.44363061 40.81921093 -78.43359375 36.92382812 C-78.41230576 29.31503256 -78.37828413 21.7063669 -78.3359375 14.09765625 C-71.68336172 12.01553781 -65.03049844 9.93433993 -58.37744141 7.85375977 C-56.1176106 7.14693688 -53.85784392 6.43990894 -51.59814453 5.73266602 C-48.33643459 4.71185296 -45.07448916 3.69179542 -41.8125 2.671875 C-40.31500717 2.20294075 -40.31500717 2.20294075 -38.78726196 1.72453308 C-36.88118292 1.12886464 -34.97403996 0.53658758 -33.06573486 -0.0519104 C-31.25385016 -0.61637984 -29.44666747 -1.19618222 -27.64471436 -1.79159546 C-17.32755509 -5.11619184 -10.1592576 -3.22764916 0 0 Z " fill="#FDFDFD" transform="translate(406.3359375,294.90234375)"/>
<path d="M0 0 C1.10494812 -0.01606293 2.20989624 -0.03212585 3.34832764 -0.04867554 C8.41613286 -0.09296935 13.48380436 -0.13420172 18.55175781 -0.15722656 C21.22723714 -0.17054953 23.90195073 -0.19836515 26.57714844 -0.23925781 C30.42569027 -0.29395162 34.27319243 -0.31589186 38.12207031 -0.33056641 C39.91605255 -0.36457047 39.91605255 -0.36457047 41.74627686 -0.39926147 C50.98710124 -0.37569517 50.98710124 -0.37569517 54.05664062 2.66308594 C54.64026367 3.49791504 55.22388672 4.33274414 55.82519531 5.19287109 C56.32019531 5.68787109 56.32019531 5.68787109 56.82519531 6.19287109 C56.91367274 8.71381186 56.94046833 11.20718002 56.92285156 13.72802734 C56.92143661 14.48127792 56.92002167 15.2345285 56.91856384 16.01060486 C56.91294907 18.42556669 56.90039414 20.8404371 56.88769531 23.25537109 C56.88268221 24.8888333 56.87811898 26.52229695 56.87402344 28.15576172 C56.86297485 32.16816694 56.84570038 36.1805035 56.82519531 40.19287109 C57.82897217 40.16668701 58.83274902 40.14050293 59.86694336 40.11352539 C63.60336883 40.02278941 67.33969766 39.96553847 71.0769043 39.91821289 C72.69197992 39.89312151 74.30694258 39.85903984 75.92163086 39.81567383 C78.24784238 39.75477824 80.5725489 39.72660986 82.89941406 39.70458984 C83.97626717 39.6658802 83.97626717 39.6658802 85.07487488 39.62638855 C89.08454035 39.62416275 90.64439881 40.04072992 93.75805664 42.66088867 C94.78129028 43.91421997 94.78129028 43.91421997 95.82519531 45.19287109 C96.15519531 45.52287109 96.48519531 45.85287109 96.82519531 46.19287109 C96.93436923 47.84859246 96.97426243 49.50893997 96.98632812 51.16821289 C96.99593567 52.22989182 97.00554321 53.29157074 97.01544189 54.38542175 C97.02181671 56.12122246 97.02181671 56.12122246 97.02832031 57.89208984 C97.03402039 59.07503128 97.03972046 60.25797272 97.04559326 61.47676086 C97.05506281 63.98783468 97.06158496 66.49892104 97.06542969 69.01000977 C97.07511004 72.84657672 97.10610545 76.68260248 97.13769531 80.51904297 C97.14422752 82.95588874 97.14947714 85.39273835 97.15332031 87.82958984 C97.16566711 88.97666916 97.17801392 90.12374847 97.19073486 91.30558777 C97.16146629 101.81344727 97.16146629 101.81344727 93.82519531 106.19287109 C89.84359554 108.63762854 85.92070576 108.42470783 81.33691406 108.38818359 C80.63371536 108.3853537 79.93051666 108.3825238 79.20600891 108.37960815 C76.97472639 108.3684726 74.74385514 108.34338106 72.51269531 108.31787109 C70.99382093 108.3078327 69.47494021 108.29870835 67.95605469 108.29052734 C64.2456361 108.26855523 60.53545589 108.23407156 56.82519531 108.19287109 C56.84090576 109.1308252 56.85661621 110.0687793 56.87280273 111.03515625 C56.92411496 114.53521315 56.96163403 118.0348668 56.98999023 121.53515625 C57.00502075 123.04628837 57.02545095 124.55737727 57.05151367 126.06835938 C57.08815221 128.24799296 57.1049787 130.42704684 57.11816406 132.60693359 C57.13387451 133.9161377 57.14958496 135.2253418 57.16577148 136.57421875 C56.79163909 140.54940898 56.06032547 142.89051115 53.82519531 146.19287109 C50.27643367 147.9838534 47.32697289 148.45426131 43.37988281 148.49926758 C42.31527832 148.51525497 41.25067383 148.53124237 40.15380859 148.54771423 C38.44427002 148.55575829 38.44427002 148.55575829 36.70019531 148.56396484 C35.52054199 148.57299332 34.34088867 148.58202179 33.12548828 148.59132385 C30.63414037 148.60581538 28.1427545 148.61471035 25.65136719 148.6184082 C21.83886946 148.63032834 18.02797778 148.6795486 14.21582031 148.72998047 C11.79395321 148.73944214 9.37207617 148.7466784 6.95019531 148.75146484 C5.81050293 148.77099716 4.67081055 148.79052948 3.49658203 148.81065369 C-4.3952021 148.76560022 -4.3952021 148.76560022 -8.37011719 145.84545898 C-11.29929575 141.54005787 -11.31032574 137.92143965 -11.27246094 132.89990234 C-11.27104599 132.19387375 -11.26963104 131.48784515 -11.26817322 130.76042175 C-11.26258233 128.50869484 -11.25003156 126.25706788 -11.23730469 124.00537109 C-11.23228851 122.47737774 -11.22772581 120.94938282 -11.22363281 119.42138672 C-11.21261589 115.67850975 -11.19535756 111.93570736 -11.17480469 108.19287109 C-12.17858154 108.21905518 -13.1823584 108.24523926 -14.21655273 108.2722168 C-17.95297821 108.36295277 -21.68930704 108.42020371 -25.42651367 108.4675293 C-27.0415893 108.49262068 -28.65655195 108.52670235 -30.27124023 108.57006836 C-32.59745175 108.63096395 -34.92215828 108.65913233 -37.24902344 108.68115234 C-38.32587654 108.71986198 -38.32587654 108.71986198 -39.42448425 108.75935364 C-43.34551947 108.76153023 -45.00631575 108.3274743 -48.10766602 105.84985352 C-50.97830089 102.1601028 -51.30540873 99.51405796 -51.36767578 94.97460938 C-51.38373871 93.90985382 -51.39980164 92.84509827 -51.41635132 91.74807739 C-51.46082033 86.88869902 -51.50184775 82.02945601 -51.52490234 77.16992188 C-51.54148135 74.60537656 -51.56879645 72.04087782 -51.60693359 69.4765625 C-51.66162066 65.78019222 -51.68356306 62.08490359 -51.69824219 58.38818359 C-51.72091156 57.2422171 -51.74358093 56.09625061 -51.76693726 54.91555786 C-51.74337773 46.06175336 -51.74337773 46.06175336 -48.70458984 42.99316406 C-47.86976074 42.39906738 -47.03493164 41.8049707 -46.17480469 41.19287109 C-45.67980469 40.69787109 -45.67980469 40.69787109 -45.17480469 40.19287109 C-42.65386392 40.10439366 -40.16049576 40.07759808 -37.63964844 40.09521484 C-36.50977257 40.09733727 -36.50977257 40.09733727 -35.35707092 40.09950256 C-32.94210909 40.10511734 -30.52723868 40.11767226 -28.11230469 40.13037109 C-26.47884248 40.13538419 -24.84537883 40.13994743 -23.21191406 40.14404297 C-19.19950884 40.15509156 -15.18717228 40.17236603 -11.17480469 40.19287109 C-11.20098877 39.18909424 -11.22717285 38.18531738 -11.25415039 37.15112305 C-11.34488637 33.41469757 -11.40213731 29.67836874 -11.44946289 25.94116211 C-11.47455427 24.32608648 -11.50863595 22.71112383 -11.55200195 21.09643555 C-11.61289754 18.77022403 -11.64106592 16.44551751 -11.66308594 14.11865234 C-11.68889236 13.40075027 -11.71469879 12.68284821 -11.74128723 11.94319153 C-11.74351303 7.93352606 -11.32694586 6.3736676 -8.70678711 3.26000977 C-7.87123291 2.577854 -7.03567871 1.89569824 -6.17480469 1.19287109 C-4.4797873 -0.5021463 -2.32198708 0.03054805 0 0 Z " fill="#000000" transform="translate(168.1748046875,97.80712890625)"/>
<path d="M0 0 C0.67413437 0.20975967 1.34826874 0.41951935 2.04283142 0.63563538 C4.25171455 1.32573644 6.45575719 2.03006454 8.65991211 2.73510742 C10.20472125 3.22189559 11.7497642 3.70794231 13.29502869 4.19328308 C16.52550619 5.2102277 19.75376429 6.23384321 22.98046875 7.26269531 C27.10510483 8.57761827 31.23377875 9.87925973 35.36405277 11.17635059 C38.55244542 12.17860936 41.73914981 13.18614588 44.92532158 14.19544029 C46.44669855 14.67704749 47.96845981 15.15744256 49.49061775 15.6365757 C51.62169735 16.30863948 53.75054454 16.98735396 55.87890625 17.66796875 C57.69256432 18.24421745 57.69256432 18.24421745 59.54286194 18.83210754 C69.53719679 22.41952996 69.53719679 22.41952996 71.87475586 27.02807617 C72.25570679 30.31791687 72.25570679 30.31791687 72.26293945 34.28076172 C72.27082489 35.36721481 72.27082489 35.36721481 72.27886963 36.47561646 C72.29207567 38.8722287 72.28331779 41.26817574 72.27319336 43.66479492 C72.27521677 45.34471259 72.27813044 47.02462939 72.28189087 48.70454407 C72.2863174 52.23442913 72.27988322 55.76408671 72.26586914 59.29394531 C72.24894784 63.76962983 72.25850641 68.24476778 72.27658653 72.72043133 C72.28756284 76.19796158 72.28391271 79.67536807 72.27620316 83.1529026 C72.27423011 84.79954915 72.27655596 86.44620771 72.28364182 88.09284019 C72.3904117 119.93364275 62.41764532 148.16139352 40.39819336 171.53588867 C27.992833 183.78762228 7.46689134 197.83417418 -10.56274414 199.30932617 C-26.35829717 198.06230883 -43.65820461 186.17556982 -55.12524414 176.02807617 C-55.8071582 175.48924805 -56.48907227 174.95041992 -57.19165039 174.39526367 C-71.56239905 162.84060111 -81.22156812 145.53804918 -87.06274414 128.34057617 C-87.48668457 127.09522095 -87.48668457 127.09522095 -87.91918945 125.82470703 C-92.00209945 113.02115217 -92.45988669 100.21187626 -92.49633789 86.90698242 C-92.50532696 85.19115633 -92.51444913 83.47533094 -92.5236969 81.75950623 C-92.54005966 78.19023751 -92.54786556 74.62106129 -92.55078125 71.05175781 C-92.55620183 66.48650564 -92.5940858 61.92212278 -92.63952541 57.35711765 C-92.66927851 53.82515772 -92.67650416 50.29340974 -92.6775074 46.76133537 C-92.68170063 45.07764572 -92.69409888 43.39395492 -92.71502495 41.71039009 C-92.74195084 39.36062946 -92.73711624 37.01292317 -92.72460938 34.66308594 C-92.73944366 33.97572357 -92.75427795 33.28836121 -92.76956177 32.58016968 C-92.68586224 27.04430263 -90.89399802 24.78558609 -87.12524414 21.02807617 C-84.79199219 19.78369141 -84.79199219 19.78369141 -82.38696289 19.08666992 C-81.49251465 18.81580566 -80.59806641 18.54494141 -79.67651367 18.26586914 C-78.73146973 18.00177246 -77.78642578 17.73767578 -76.81274414 17.46557617 C-75.83160645 17.17312012 -74.85046875 16.88066406 -73.83959961 16.5793457 C-71.85917682 15.98945316 -69.87643072 15.4073004 -67.89135742 14.83325195 C-64.15910848 13.74684798 -60.45540007 12.57779021 -56.75024414 11.40307617 C-55.47185022 11.00383114 -54.19320635 10.60538552 -52.91430664 10.20776367 C-48.98373428 8.98401846 -45.05435868 7.75649119 -41.12524414 6.52807617 C-36.97320858 5.23021182 -32.82097469 3.93299015 -28.66821289 2.63745117 C-27.93924805 2.40993164 -27.2102832 2.18241211 -26.45922852 1.94799805 C-25.06086411 1.51156585 -23.66243007 1.07535672 -22.26391602 0.6394043 C-13.97927753 -1.94689533 -8.46998416 -2.67266689 0 0 Z M-18.35571289 20.17260742 C-19.14187988 20.43227295 -19.92804688 20.69193848 -20.73803711 20.95947266 C-22.01251709 21.3956189 -22.01251709 21.3956189 -23.31274414 21.84057617 C-25.23507416 22.47595719 -27.15832685 23.10855053 -29.08227539 23.73901367 C-30.71156982 24.27413574 -30.71156982 24.27413574 -32.3737793 24.82006836 C-40.05409535 27.2932041 -47.78088302 29.61779797 -55.50024414 31.96557617 C-57.14635337 32.46718096 -58.79243147 32.96888792 -60.43847656 33.47070312 C-64.3336443 34.65788259 -68.22929661 35.84345839 -72.12524414 37.02807617 C-72.17188786 45.40887393 -72.20727424 53.78961611 -72.22886848 62.1705122 C-72.23924032 66.06342897 -72.25327651 69.95625597 -72.27612305 73.84912109 C-72.29808993 77.61630937 -72.30986218 81.38341211 -72.31499863 85.15065956 C-72.31865213 86.57733822 -72.32578429 88.00401298 -72.33670425 89.43065453 C-72.52069875 114.4994762 -65.63912948 137.21548104 -47.84008789 155.34838867 C-46.94418945 156.23268555 -46.04829102 157.11698242 -45.12524414 158.02807617 C-44.3840332 158.76799805 -43.64282227 159.50791992 -42.87915039 160.27026367 C-34.42553835 168.24302805 -22.16088803 177.35431311 -10.19165039 178.24682617 C3.97569074 177.23616235 17.20115637 165.52608227 26.87475586 156.02807617 C28.01557617 154.92399414 28.01557617 154.92399414 29.17944336 153.79760742 C45.98532407 136.43928427 52.24309205 113.75985176 52.07006836 90.17651367 C52.06633028 88.66623117 52.06348707 87.15594621 52.06149292 85.6456604 C52.05391893 81.70344139 52.03432535 77.76137377 52.01208496 73.81921387 C51.99149089 69.7833867 51.98246243 65.74753468 51.97241211 61.71166992 C51.95107246 53.81706982 51.91701351 45.92259192 51.87475586 38.02807617 C42.02243853 34.22208427 31.93413717 31.14527575 21.86621094 27.96582031 C19.49373066 27.21465169 17.12263262 26.4591036 14.75292969 25.69921875 C11.31608643 24.5972483 7.87530072 23.50850322 4.43334961 22.42260742 C3.3790123 22.08203812 2.32467499 21.74146881 1.23838806 21.39057922 C-5.48697464 19.29023752 -11.46453437 17.8270165 -18.35571289 20.17260742 Z " fill="#010202" transform="translate(400.125244140625,271.971923828125)"/>
<path d="M0 0 C9.24 0 18.48 0 28 0 C28.04898438 2.25199219 28.09796875 4.50398438 28.1484375 6.82421875 C28.20251196 9.01528326 28.25979391 11.20624218 28.31738281 13.3972168 C28.35556704 14.91503978 28.39043808 16.43295001 28.421875 17.95092773 C28.46775628 20.13817431 28.52571029 22.32482582 28.5859375 24.51171875 C28.6173584 25.82615967 28.6487793 27.14060059 28.68115234 28.49487305 C28.98312751 31.81451884 29.42697432 34.07909166 31 37 C34.65662904 39.43775269 37.49415429 39.34686544 41.73046875 39.4140625 C42.85609978 39.44311172 42.85609978 39.44311172 44.00447083 39.4727478 C46.39869867 39.53247459 48.79297477 39.57890065 51.1875 39.625 C52.8118698 39.6631862 54.43621948 39.70223831 56.06054688 39.7421875 C60.04025928 39.83979925 64.01976038 39.91941976 68 40 C68 49.24 68 58.48 68 68 C65.60363281 68.01417969 63.20726562 68.02835937 60.73828125 68.04296875 C58.40814284 68.07361467 56.07828732 68.11269635 53.74829102 68.15258789 C52.13348451 68.17573286 50.51852779 68.19015543 48.90356445 68.19555664 C46.57668852 68.20487274 44.25216324 68.24591368 41.92578125 68.29296875 C40.84892815 68.28706978 40.84892815 68.28706978 39.75032043 68.28105164 C36.06695362 68.38740143 34.09443372 68.93444012 31.04882812 71.04882812 C28.50832635 74.70821628 28.26936215 77.61641246 28.29296875 81.92578125 C28.27028679 83.04716743 28.27028679 83.04716743 28.24714661 84.19120789 C28.20435919 86.56528087 28.1954412 88.93808031 28.1875 91.3125 C28.16434842 92.92776802 28.13898169 94.54300591 28.11132812 96.15820312 C28.04441365 100.10615713 28.02336928 104.05059113 28 108 C18.76 108 9.52 108 0 108 C-0.01417969 105.60363281 -0.02835938 103.20726562 -0.04296875 100.73828125 C-0.07361467 98.40814284 -0.11269635 96.07828732 -0.15258789 93.74829102 C-0.17573286 92.13348451 -0.19015543 90.51852779 -0.19555664 88.90356445 C-0.20487274 86.57668852 -0.24591368 84.25216324 -0.29296875 81.92578125 C-0.2890361 81.20787918 -0.28510345 80.48997711 -0.28105164 79.75032043 C-0.38740143 76.06695362 -0.93444012 74.09443372 -3.04882812 71.04882812 C-6.70821628 68.50832635 -9.61641246 68.26936215 -13.92578125 68.29296875 C-14.67337204 68.27784744 -15.42096283 68.26272614 -16.19120789 68.24714661 C-18.56528087 68.20435919 -20.93808031 68.1954412 -23.3125 68.1875 C-24.92776802 68.16434842 -26.54300591 68.13898169 -28.15820312 68.11132812 C-32.10615713 68.04441365 -36.05059113 68.02336928 -40 68 C-40 58.76 -40 49.52 -40 40 C-37.74800781 39.95101562 -35.49601563 39.90203125 -33.17578125 39.8515625 C-30.98471674 39.79748804 -28.79375782 39.74020609 -26.6027832 39.68261719 C-25.08496022 39.64443296 -23.56704999 39.60956192 -22.04907227 39.578125 C-19.86182569 39.53224372 -17.67517418 39.47428971 -15.48828125 39.4140625 C-13.51661987 39.36693115 -13.51661987 39.36693115 -11.50512695 39.31884766 C-8.14435616 39.01313151 -5.89238521 38.7252824 -3 37 C-0.6338013 33.03313747 -0.69442522 29.05012184 -0.5859375 24.51171875 C-0.56657135 23.80852005 -0.5472052 23.10532135 -0.5272522 22.3808136 C-0.46779817 20.14982981 -0.42120951 17.91879346 -0.375 15.6875 C-0.33678863 14.16859814 -0.29773508 12.64971722 -0.2578125 11.13085938 C-0.16054963 7.4206861 -0.08071394 3.71071737 0 0 Z " fill="#F4727E" transform="translate(177,118)"/>
<path d="M0 0 C1.05563644 -0.00708481 2.11127289 -0.01416962 3.19889832 -0.02146912 C4.35687927 -0.0189917 5.51486023 -0.01651428 6.70793152 -0.01396179 C7.92768173 -0.01907272 9.14743195 -0.02418365 10.40414429 -0.02944946 C13.75145175 -0.04098149 17.09851187 -0.04341666 20.445822 -0.04088616 C23.24141051 -0.0398168 26.03697615 -0.04469915 28.83255976 -0.04949158 C35.4303573 -0.06059176 42.02809791 -0.06102194 48.62590027 -0.05497742 C55.42703408 -0.04894221 62.22796076 -0.0612358 69.02905923 -0.08254749 C74.87121676 -0.10017959 80.71330848 -0.10616214 86.55549163 -0.10290974 C90.04331603 -0.1010986 93.53099284 -0.10371562 97.01879311 -0.11762428 C100.9113485 -0.13256542 104.80364167 -0.12321836 108.69621277 -0.11161804 C109.84812103 -0.11926178 111.0000293 -0.12690552 112.18684387 -0.13478088 C122.16943546 -0.06897759 122.16943546 -0.06897759 126.89616394 3.26069641 C129.0236009 6.45185185 129.17215232 7.0292566 128.83366394 10.63569641 C128.78081238 11.38593079 128.72796082 12.13616516 128.67350769 12.90913391 C127.54270171 16.32996408 125.97899831 18.45803326 122.89616394 20.26069641 C118.82454466 21.02354308 114.79018807 20.94338338 110.65788269 20.90766907 C109.41672699 20.91643066 108.17557129 20.92519226 106.89680481 20.93421936 C103.49964227 20.95243984 100.1040049 20.94819336 96.70692825 20.93232393 C93.14848564 20.91964549 89.59010722 20.93141042 86.03166199 20.93925476 C80.05636422 20.94834575 74.08137567 20.93637821 68.10612488 20.91255188 C61.20251148 20.88534122 54.29963643 20.8941558 47.39604092 20.92168391 C41.46378742 20.94439001 35.53175592 20.94756787 29.599473 20.93449056 C26.0585476 20.92670412 22.51796901 20.92563169 18.97706604 20.942173 C15.02923488 20.95932779 11.08222757 20.93553735 7.13444519 20.90766907 C5.96338226 20.91779022 4.79231934 20.92791138 3.58576965 20.93833923 C-5.22826569 20.82291724 -5.22826569 20.82291724 -8.30622864 17.84526062 C-10.97833092 14.00336509 -11.4729328 11.96667985 -11.10383606 7.26069641 C-8.52801392 1.86373574 -5.94255328 0.01328017 0 0 Z " fill="#010101" transform="translate(72.10383605957031,385.7393035888672)"/>
<path d="M0 0 C2.8100346 1.79363911 4.50940468 3.01880935 6 6 C6.26474519 12.34140767 5.18049685 15.34937299 0.87915039 20.04492188 C-0.94408761 21.87363021 -2.78938124 23.68052695 -4.65234375 25.46875 C-5.63428726 26.43829049 -6.61453288 27.40955332 -7.59315491 28.38244629 C-10.1608803 30.9254289 -12.75213247 33.44306259 -15.34881592 35.9564209 C-17.4697463 38.01713508 -19.57367381 40.09474339 -21.67688656 42.17351532 C-26.01727603 46.46336395 -30.37080066 50.73975346 -34.74975586 54.99023438 C-35.91105263 56.1186676 -35.91105263 56.1186676 -37.09580994 57.26989746 C-40.14041292 60.0361525 -42.67888121 60.53257648 -46.81274414 60.46337891 C-49.50271204 59.89349844 -50.61341814 58.94987902 -52.62109375 57.0859375 C-53.31267578 56.44946289 -54.00425781 55.81298828 -54.71679688 55.15722656 C-55.84698242 54.08939941 -55.84698242 54.08939941 -57 53 C-57.82564453 52.23913086 -58.65128906 51.47826172 -59.50195312 50.69433594 C-62.17966231 48.20332758 -64.81056576 45.66942279 -67.4375 43.125 C-68.34693359 42.27808594 -69.25636719 41.43117188 -70.19335938 40.55859375 C-74.90056295 35.96740042 -78.02906053 32.70584211 -78.30053711 25.96069336 C-77.68135118 21.92114648 -76.24655098 20.53230976 -73 18 C-69.77143851 17.04429679 -67.2423496 17.11026434 -64 18 C-60.88230027 19.91065256 -58.5197933 22.36924333 -56 25 C-55.10152344 25.88816406 -54.20304687 26.77632813 -53.27734375 27.69140625 C-50.83204296 30.10919311 -48.40922248 32.54634514 -46 35 C-43.00906654 33.65791709 -40.93810219 32.18024138 -38.64013672 29.85131836 C-38.00623016 29.21403305 -37.37232361 28.57674774 -36.71920776 27.92015076 C-36.04616608 27.23364944 -35.37312439 26.54714813 -34.6796875 25.83984375 C-33.9798172 25.13477188 -33.2799469 24.42970001 -32.55886841 23.70326233 C-30.32611018 21.4527047 -28.10015735 19.19557104 -25.875 16.9375 C-23.64183957 14.67674302 -21.40724714 12.41744978 -19.16970825 10.161026 C-17.77801112 8.75704949 -16.38899556 7.35040892 -15.00289917 5.94090271 C-14.06149582 4.98970299 -14.06149582 4.98970299 -13.10107422 4.01928711 C-12.5491037 3.45906357 -11.99713318 2.89884003 -11.42843628 2.32164001 C-8.14580975 -0.71556272 -4.23872913 -0.60901281 0 0 Z " fill="#010101" transform="translate(426,338)"/>
<path d="M0 0 C6.27516747 5.1842579 12.00092731 10.85465834 17.74609375 16.61328125 C18.76727468 17.63378745 19.78860392 18.65414526 20.81007385 19.67436218 C22.93547462 21.79829792 25.05907898 23.92400888 27.18139648 26.05102539 C29.90738027 28.7827496 32.63788825 31.50990091 35.36971951 34.23577595 C37.47236908 36.33482465 39.57264692 38.43623338 41.67219734 40.53838158 C42.67903229 41.54588486 43.68661406 42.55264238 44.69494438 43.55864906 C46.09518389 44.95636519 47.49190155 46.3576069 48.88842773 47.7590332 C49.68449936 48.55590042 50.48057098 49.35276764 51.30076599 50.17378235 C53 52 53 52 53 53 C46.25590973 53.15223524 39.51226296 53.25725034 32.7668457 53.32958984 C30.47273196 53.35974782 28.17873338 53.40068116 25.88500977 53.45263672 C22.58581128 53.52549194 19.28813783 53.55946693 15.98828125 53.5859375 C14.45207878 53.63238907 14.45207878 53.63238907 12.88484192 53.67977905 C8.10419403 53.68203439 5.7538773 53.56307544 1.84375 50.64257812 C-1.05172508 46.21678501 -0.62034634 41.23549824 -0.48828125 36.1328125 C-0.48120651 35.09808807 -0.47413177 34.06336365 -0.46684265 32.99728394 C-0.43894587 29.70577446 -0.37621368 26.41599174 -0.3125 23.125 C-0.28741115 20.88804547 -0.26459901 18.65106417 -0.24414062 16.4140625 C-0.18913494 10.94212328 -0.10555572 5.47118502 0 0 Z " fill="#FED79D" transform="translate(284,35)"/>
<path d="M0 0 C3.98066095 1.57724302 5.60667274 2.41000911 8 6 C8.45745203 10.94048196 8.21323826 14.12195382 5 18 C1.08746765 20.28231054 -2.53976869 20.55752891 -7 20 C-9.9375 18.125 -9.9375 18.125 -12 15 C-13.02870363 9.89829907 -12.82533781 6.25051183 -9.9375 1.875 C-6.23034524 -0.491269 -4.33318323 -0.60816607 0 0 Z " fill="#030303" transform="translate(12,226)"/>
</svg>
